<svg xmlns="http://www.w3.org/2000/svg" xmlns:xlink="http://www.w3.org/1999/xlink" width="1440" zoomAndPan="magnify" viewBox="0 0 1080 3149.999984" height="4200" preserveAspectRatio="xMidYMid meet" version="1.0"><defs><filter x="0%" y="0%" width="100%" height="100%" id="28368aa27f"><feColorMatrix values="0 0 0 0 1 0 0 0 0 1 0 0 0 0 1 0 0 0 1 0" color-interpolation-filters="sRGB"/></filter><mask id="7876b10de0"><g filter="url(#28368aa27f)"><rect x="-108" width="1296" fill="#000000" y="-314.999998" height="3779.999981" fill-opacity="0.1"/></g></mask><clipPath id="77af76417f"><path d="M 544 817 L 1080 817 L 1080 3149 L 544 3149 Z M 544 817 " clip-rule="nonzero"/></clipPath><clipPath id="bff6ec47fb"><path d="M 894 1690 L 1080 1690 L 1080 2981 L 894 2981 Z M 894 1690 " clip-rule="nonzero"/></clipPath><clipPath id="bcb7ed59f4"><path d="M 757 1820 L 1080 1820 L 1080 3131 L 757 3131 Z M 757 1820 " clip-rule="nonzero"/></clipPath><clipPath id="b8cbd80932"><path d="M 878 2464 L 1080 2464 L 1080 3052 L 878 3052 Z M 878 2464 " clip-rule="nonzero"/></clipPath><clipPath id="e81a7b3626"><path d="M 406 123 L 1080 123 L 1080 2023 L 406 2023 Z M 406 123 " clip-rule="nonzero"/></clipPath><clipPath id="7046b2cc47"><path d="M 410 429 L 1080 429 L 1080 1557 L 410 1557 Z M 410 429 " clip-rule="nonzero"/></clipPath><clipPath id="bcdbc0b310"><path d="M 790 269 L 1080 269 L 1080 851 L 790 851 Z M 790 269 " clip-rule="nonzero"/></clipPath><clipPath id="b9f7af88e3"><path d="M 758 1155 L 1080 1155 L 1080 1603 L 758 1603 Z M 758 1155 " clip-rule="nonzero"/></clipPath><clipPath id="27d18250a3"><path d="M 0 174 L 528 174 L 528 1231 L 0 1231 Z M 0 174 " clip-rule="nonzero"/></clipPath><clipPath id="5f7deaee55"><path d="M 0 114 L 7 114 L 7 846 L 0 846 Z M 0 114 " clip-rule="nonzero"/></clipPath><clipPath id="77bf76bdb0"><path d="M 0 1195 L 530 1195 L 530 1920 L 0 1920 Z M 0 1195 " clip-rule="nonzero"/></clipPath><clipPath id="57ac39c10d"><path d="M 0 1742 L 312 1742 L 312 2900 L 0 2900 Z M 0 1742 " clip-rule="nonzero"/></clipPath><clipPath id="9becefe6d7"><path d="M 0 2817 L 85 2817 L 85 3026 L 0 3026 Z M 0 2817 " clip-rule="nonzero"/></clipPath><clipPath id="088463e4e7"><path d="M 0 1525 L 145 1525 L 145 2477 L 0 2477 Z M 0 1525 " clip-rule="nonzero"/></clipPath><clipPath id="70332973f8"><rect x="0" width="1080" y="0" height="3150"/></clipPath></defs><rect x="-108" width="1296" fill="#ffffff" y="-314.999998" height="3779.999981" fill-opacity="1"/><rect x="-108" width="1296" fill="#f6f4f1" y="-314.999998" height="3779.999981" fill-opacity="1"/><rect x="-108" width="1296" fill="#f6f4f1" y="-314.999998" height="3779.999981" fill-opacity="1"/><g mask="url(#7876b10de0)"><g transform="matrix(1, 0, 0, 1, 0, 0.000000000000200288)"><g clip-path="url(#70332973f8)"><path fill="#a57f2d" d="M 80.375 3061.578125 C 78.765625 3067.644531 77.066406 3073.710938 75.320312 3079.777344 C 56.886719 3074.125 38.640625 3068.105469 20.53125 3061.808594 C 22.230469 3055.742188 23.886719 3049.582031 25.449219 3043.46875 C 43.605469 3049.859375 61.945312 3055.878906 80.375 3061.578125 Z M 80.375 3061.578125 " fill-opacity="1" fill-rule="nonzero"/><path fill="#a57f2d" d="M 392.65625 3123.351562 C 392.105469 3129.464844 391.507812 3135.574219 390.863281 3141.6875 C 371.925781 3139.988281 353.082031 3137.917969 334.328125 3135.53125 C 335.015625 3129.417969 335.660156 3123.304688 336.167969 3117.097656 C 354.875 3119.535156 373.71875 3121.601562 392.65625 3123.351562 Z M 392.65625 3123.351562 " fill-opacity="1" fill-rule="nonzero"/><path fill="#a57f2d" d="M 511.796875 3129.738281 C 511.289062 3135.898438 510.738281 3142.011719 510.140625 3148.125 C 501.363281 3147.941406 492.582031 3147.664062 483.757812 3147.34375 C 473.507812 3147.019531 463.304688 3146.605469 453.144531 3146.101562 C 453.789062 3140.035156 454.386719 3133.921875 454.890625 3127.855469 C 473.78125 3128.820312 492.71875 3129.464844 511.75 3129.738281 Z M 511.796875 3129.738281 " fill-opacity="1" fill-rule="nonzero"/><path fill="#a57f2d" d="M 606.894531 3128.683594 C 606.988281 3134.335938 607.402344 3140.539062 608 3147.160156 C 589.335938 3147.941406 570.582031 3148.351562 551.691406 3148.445312 C 551.371094 3142.285156 551.09375 3136.128906 550.773438 3129.921875 C 569.570312 3129.832031 588.234375 3129.417969 606.894531 3128.683594 Z M 606.894531 3128.683594 " fill-opacity="1" fill-rule="nonzero"/><path fill="#a57f2d" d="M 835.660156 3102.070312 C 836.53125 3108.230469 837.40625 3114.433594 838.277344 3120.59375 C 836.300781 3120.960938 834.328125 3121.328125 832.304688 3121.742188 C 832.304688 3121.742188 832.210938 3121.742188 832.164062 3121.742188 C 815.433594 3124.867188 798.566406 3127.761719 781.652344 3130.382812 C 780.777344 3124.222656 779.90625 3118.109375 779.03125 3111.953125 C 798.015625 3109.011719 816.90625 3105.746094 835.660156 3102.117188 Z M 835.660156 3102.070312 " fill-opacity="1" fill-rule="nonzero"/><path fill="#a57f2d" d="M 989.179688 3064.058594 C 991.570312 3069.898438 993.820312 3075.78125 995.980469 3081.664062 C 982.191406 3085.84375 968.265625 3089.84375 954.292969 3093.660156 C 949.648438 3094.898438 945.007812 3096.140625 940.410156 3097.382812 C 938.207031 3091.453125 935.859375 3085.617188 933.378906 3079.824219 C 952.132812 3074.90625 970.703125 3069.667969 989.179688 3064.058594 Z M 989.179688 3064.058594 " fill-opacity="1" fill-rule="nonzero"/><path fill="#a57f2d" d="M 85.523438 65.394531 C 87.40625 71.277344 89.382812 77.117188 91.453125 82.953125 C 72.792969 88.605469 54.265625 94.582031 35.882812 100.878906 C 33.90625 95.085938 32.019531 89.25 30.226562 83.367188 C 48.523438 77.023438 67 71.050781 85.570312 65.441406 Z M 85.523438 65.394531 " fill-opacity="1" fill-rule="nonzero"/><path fill="#a57f2d" d="M 309 15.34375 C 305.507812 22.101562 302.105469 28.902344 298.75 35.703125 C 275.078125 39.382812 251.589844 43.609375 228.289062 48.390625 C 231.367188 41.402344 234.539062 34.417969 237.757812 27.523438 C 261.382812 22.925781 285.101562 18.835938 309 15.34375 Z M 309 15.34375 " fill-opacity="1" fill-rule="nonzero"/><path fill="#a57f2d" d="M 697.492188 6.566406 C 694.226562 12.632812 690.871094 18.605469 687.46875 24.582031 C 673.222656 23.25 658.925781 22.144531 644.539062 21.226562 C 637.554688 20.722656 630.566406 20.308594 623.625 19.894531 C 624.222656 18.929688 624.820312 17.917969 625.417969 16.953125 C 628.453125 11.898438 631.484375 6.839844 634.382812 1.785156 C 655.480469 2.933594 676.53125 4.542969 697.492188 6.566406 Z M 697.492188 6.566406 " fill-opacity="1" fill-rule="nonzero"/><path fill="#a57f2d" d="M 886.863281 37.128906 C 885.070312 43.105469 883.324219 49.125 881.578125 55.144531 C 862.871094 50.964844 844.023438 47.101562 825.042969 43.609375 C 826.789062 37.542969 828.535156 31.476562 830.28125 25.457031 C 849.21875 28.996094 868.0625 32.902344 886.816406 37.175781 Z M 886.863281 37.128906 " fill-opacity="1" fill-rule="nonzero"/><g clip-path="url(#77af76417f)"><path fill="#a57f2d" d="M 1920.734375 817.28125 C 1932.6875 838.925781 1944.132812 860.851562 1955.023438 883.050781 C 1835.335938 1132.484375 1688.664062 1345.605469 1386.035156 1497.417969 C 1255.21875 1565.257812 1108.457031 1600.417969 985.960938 1684.386719 C 719.1875 1872.644531 635.4375 2220.574219 612.179688 2529.390625 C 599.449219 2723.761719 598.757812 2919.003906 607.492188 3113.605469 C 606.34375 3122.382812 606.847656 3134.011719 607.953125 3147.15625 C 589.292969 3147.9375 570.539062 3148.351562 551.644531 3148.445312 C 548.199219 3080.421875 545.488281 3012.308594 544.75 2944.191406 C 543.96875 2593.597656 544.015625 2221.632812 717.667969 1906.335938 C 865.675781 1619.308594 1089.933594 1567.691406 1359.695312 1446.492188 C 1613.234375 1321.109375 1806.378906 1099.160156 1911.820312 838.328125 C 1914.761719 831.296875 1917.75 824.3125 1920.691406 817.324219 Z M 1920.734375 817.28125 " fill-opacity="1" fill-rule="nonzero"/></g><g clip-path="url(#bff6ec47fb)"><path fill="#a57f2d" d="M 1408.050781 2273.753906 C 1417.058594 2442.15625 1353.8125 2601.457031 1316.03125 2762.734375 C 1303.070312 2824.554688 1301.921875 2887.523438 1303.851562 2950.441406 C 1285.1875 2960.921875 1266.25 2970.988281 1247.128906 2980.730469 C 1243.914062 2916.109375 1244.328125 2851.167969 1253.429688 2787.324219 C 1270.066406 2682.074219 1309.734375 2582.292969 1330.878906 2478.003906 C 1390.539062 2233.167969 1319.800781 1949.816406 1101.515625 1806.785156 C 1065.617188 1783.621094 1027.421875 1762.984375 985.457031 1753.605469 C 956.316406 1744.230469 904.328125 1758.890625 894.722656 1720.421875 C 910.257812 1671.105469 990.097656 1695.878906 1026.363281 1705.300781 C 1258.898438 1789.089844 1402.03125 2032.914062 1408.144531 2273.707031 Z M 1408.050781 2273.753906 " fill-opacity="1" fill-rule="nonzero"/></g><g clip-path="url(#bcb7ed59f4)"><path fill="#a57f2d" d="M 817.503906 2812.511719 C 817.550781 2811.867188 817.59375 2811.226562 817.640625 2810.582031 C 812.261719 2907.238281 821.546875 3003.710938 835.292969 3099.3125 C 836.257812 3106.390625 837.269531 3113.515625 838.277344 3120.546875 C 819.527344 3124.175781 800.632812 3127.441406 781.652344 3130.335938 C 774.847656 3082.492188 768.460938 3034.550781 763.953125 2986.476562 C 738.71875 2775.652344 789.925781 2563.953125 897.34375 2382.082031 C 1000.992188 2210.832031 1119.488281 2043.394531 1139.296875 1838.910156 C 1149.59375 1813.863281 1172.394531 1814.964844 1184.617188 1838.910156 C 1205.855469 1912.542969 1154.464844 2027.859375 1126.613281 2097.949219 C 1071.683594 2223.65625 984.722656 2336.03125 921.980469 2456.726562 C 868.890625 2562.574219 827.800781 2676.605469 818.699219 2795.367188 L 818.652344 2795.367188 C 818.421875 2801.066406 817.917969 2806.8125 817.550781 2812.511719 Z M 817.503906 2812.511719 " fill-opacity="1" fill-rule="nonzero"/></g><g clip-path="url(#b8cbd80932)"><path fill="#a57f2d" d="M 1111.214844 2809.753906 C 1125.691406 2882.007812 1134.609375 2955.773438 1141.367188 3029.496094 C 1123.027344 3037.125 1104.503906 3044.433594 1085.84375 3051.375 C 1080.097656 2987.488281 1072.464844 2923.96875 1062.078125 2859.808594 C 1041.394531 2738.421875 1002.140625 2609.042969 905.707031 2526.21875 C 857.8125 2493.492188 877.300781 2443.535156 932.917969 2474.605469 C 1035.648438 2553.839844 1086.667969 2687.453125 1111.214844 2809.800781 Z M 1111.214844 2809.753906 " fill-opacity="1" fill-rule="nonzero"/></g><g clip-path="url(#e81a7b3626)"><path fill="#a57f2d" d="M 1205.164062 147.070312 C 1197.855469 206.589844 1185.03125 263.8125 1168.667969 314.644531 C 1084.832031 566.511719 895.964844 761.207031 720.152344 952.589844 C 567.089844 1119.199219 462.335938 1334.023438 463.902344 1563.417969 C 465.738281 1709.4375 505.726562 1916.082031 666.371094 1961.949219 C 691.835938 1967.417969 721.714844 1963.972656 734.628906 1988.792969 C 737.203125 2010.53125 710.175781 2023.8125 691.378906 2022.941406 C 503.476562 2011.542969 423.269531 1797.453125 409.523438 1635.53125 C 381.117188 1323.914062 530.410156 1055.128906 744.832031 840.628906 C 938.433594 639.730469 1123.945312 396.226562 1152.078125 123.214844 C 1169.910156 130.84375 1187.605469 138.796875 1205.164062 147.023438 Z M 1205.164062 147.070312 " fill-opacity="1" fill-rule="nonzero"/></g><g clip-path="url(#7046b2cc47)"><path fill="#a57f2d" d="M 1592.917969 429.503906 C 1608.269531 443.703125 1623.347656 458.183594 1638.148438 472.980469 C 1561.847656 664.917969 1423.726562 811.71875 1227.089844 950.199219 C 1063.550781 1060.1875 879.648438 1137.308594 714.40625 1244.214844 C 636.910156 1294.773438 569.800781 1360.636719 517.863281 1437.253906 C 491.296875 1465.566406 464.269531 1564.613281 424.96875 1556.0625 C 382.589844 1521.132812 442.066406 1457.570312 459.351562 1421.765625 C 541.394531 1288.0625 671.199219 1194.070312 807.117188 1121.820312 C 1036.109375 999.332031 1275.765625 882.453125 1446.019531 679.761719 C 1513.492188 607.144531 1560.746094 521.332031 1592.917969 429.503906 Z M 1592.917969 429.503906 " fill-opacity="1" fill-rule="nonzero"/></g><g clip-path="url(#bcdbc0b310)"><path fill="#a57f2d" d="M 1420.1875 269.785156 C 1436.503906 280.863281 1452.589844 292.214844 1468.496094 303.890625 C 1405.109375 468.019531 1292.039062 612.933594 1148.492188 715.0625 C 1052.519531 782.257812 943.492188 845.960938 823.617188 850.003906 C 803.023438 848.257812 776.917969 825.691406 799.898438 807.8125 C 819.984375 788.277344 850.320312 792.828125 875.601562 785.980469 C 935.585938 773.339844 991.25 746.5 1043.601562 715.289062 C 1214.21875 615.1875 1352.800781 456.113281 1420.1875 269.785156 Z M 1420.1875 269.785156 " fill-opacity="1" fill-rule="nonzero"/></g><g clip-path="url(#b9f7af88e3)"><path fill="#a57f2d" d="M 1087.910156 1581.113281 C 1070.675781 1521.730469 1045.253906 1464.96875 1018.136719 1409.492188 C 976.585938 1320.925781 915.085938 1229.414062 810.839844 1213.789062 C 780.503906 1213.101562 732.882812 1187.914062 775.582031 1161.070312 C 847.472656 1134.917969 964.542969 1213.007812 1004.027344 1272.4375 C 1055.644531 1345.101562 1092.414062 1427.738281 1124.910156 1510.425781 C 1132.402344 1538.554688 1164.164062 1586.261719 1123.257812 1601.199219 C 1108.410156 1605.378906 1092.183594 1596.28125 1087.910156 1581.113281 Z M 1087.910156 1581.113281 " fill-opacity="1" fill-rule="nonzero"/></g><path fill="#a57f2d" d="M 936.183594 599.421875 C 955.121094 618.957031 978.5625 673.007812 930.714844 666.019531 C 879.832031 650.808594 853.125 564.261719 832.671875 518.945312 C 791.488281 399.765625 777.605469 269.234375 799.394531 144.679688 C 807.898438 103.773438 818.972656 64.292969 830.328125 25.457031 C 849.265625 28.996094 868.15625 32.902344 886.863281 37.175781 C 877.027344 70.636719 867.328125 104.050781 859.191406 137.601562 C 833.132812 267.027344 848.4375 407.945312 898.492188 529.191406 C 908.835938 553.734375 921.980469 576.992188 936.183594 599.46875 Z M 936.183594 599.421875 " fill-opacity="1" fill-rule="nonzero"/><path fill="#a57f2d" d="M 687.976562 934.941406 C 707.96875 967.894531 647.804688 978.695312 625.695312 969.59375 C 406.445312 915.914062 236.835938 718.140625 180.851562 504.007812 C 135.117188 343.050781 168.214844 176.300781 237.757812 27.570312 C 261.382812 22.972656 285.101562 18.882812 309 15.390625 C 263.175781 104.648438 226.632812 198.039062 218.820312 299.339844 C 200.433594 536.59375 337.820312 775.410156 549.441406 882.132812 C 576.652344 894.863281 604.503906 906.078125 633.875 912.742188 C 653.363281 915.867188 675.199219 917.890625 688.023438 934.988281 Z M 687.976562 934.941406 " fill-opacity="1" fill-rule="nonzero"/><path fill="#a57f2d" d="M 634.429688 1.738281 C 655.523438 2.886719 676.578125 4.496094 697.492188 6.566406 C 650.976562 92.925781 588.324219 169.269531 537.167969 252.828125 C 448.59375 398.707031 419.730469 578.324219 452.546875 745.351562 C 458.386719 782.441406 477.230469 817.554688 478.472656 855.015625 C 475.757812 887.277344 450.066406 892.75 430.621094 867.238281 C 357.492188 693.734375 369.675781 486.402344 441.46875 313.910156 C 486.652344 205.578125 564.792969 116.320312 625.511719 16.953125 C 628.542969 11.898438 631.578125 6.839844 634.472656 1.785156 Z M 634.429688 1.738281 " fill-opacity="1" fill-rule="nonzero"/><path fill="#a57f2d" d="M 171.613281 229.019531 C 198.226562 249.289062 222.222656 306.738281 165.867188 295.296875 C 104.277344 256.457031 58.773438 176.070312 30.183594 83.320312 C 48.476562 77.023438 66.953125 71.050781 85.523438 65.441406 C 95.175781 95.546875 106.988281 124.960938 121.097656 153.320312 C 135.210938 180.34375 151.390625 206.222656 171.613281 229.066406 Z M 171.613281 229.019531 " fill-opacity="1" fill-rule="nonzero"/><g clip-path="url(#27d18250a3)"><path fill="#a57f2d" d="M 424.96875 1171.6875 C 452.316406 1177.433594 536.433594 1150.039062 526.503906 1198.898438 C 501.222656 1243.617188 435.953125 1227.625 393.117188 1226.105469 C 217.808594 1200.183594 60.289062 1085.097656 -36.328125 938.984375 C -102.148438 832.675781 -134.414062 709.085938 -152.480469 586.324219 C -171.09375 456.621094 -179.644531 322.734375 -232.824219 201.808594 C -216.277344 192.433594 -199.59375 183.378906 -182.679688 174.644531 C -167.324219 209.164062 -154.5 244.828125 -144.160156 281.277344 C -83.761719 525.746094 -108.492188 817.050781 90.164062 1004.113281 C 180.625 1092.222656 296.957031 1161.945312 425.015625 1171.6875 Z M 424.96875 1171.6875 " fill-opacity="1" fill-rule="nonzero"/></g><g clip-path="url(#5f7deaee55)"><path fill="#a57f2d" d="M -7.460938 257.515625 C 18.554688 373.519531 3.109375 493.25 -19.273438 608.523438 C -26.949219 651.40625 -34.214844 694.285156 -37.660156 737.765625 C -42.441406 768.605469 -29.664062 801.789062 -42.808594 830.746094 C -52.554688 854.046875 -75.488281 846.371094 -86.0625 827.894531 C -113.226562 745.351562 -81.695312 653.425781 -70.617188 569.640625 C -36.007812 414.105469 -49.289062 275.394531 -105.089844 137.003906 C -87.671875 129.144531 -70.066406 121.5625 -52.324219 114.34375 C -33.707031 161.546875 -19.089844 210.265625 -7.460938 257.515625 Z M -7.460938 257.515625 " fill-opacity="1" fill-rule="nonzero"/></g><g clip-path="url(#77bf76bdb0)"><path fill="#a57f2d" d="M 470.152344 1851.734375 C 566.859375 1882.851562 530.363281 1935.9375 469.738281 1914.332031 C 234.078125 1808.484375 135.074219 1545.078125 -52.140625 1381.824219 C -186.355469 1257.40625 -398.527344 1208.777344 -562.894531 1299.875 C -758.332031 1392.304688 -813.859375 1565.074219 -923.621094 1733.109375 C -952.714844 1779.023438 -981.996094 1814.367188 -1013.574219 1840.613281 C -1017.664062 1817.355469 -1021.203125 1793.960938 -1024.191406 1770.429688 C -1004.976562 1749.46875 -987.925781 1726.03125 -972.390625 1702.863281 C -902.84375 1601.105469 -855.273438 1484.871094 -775.203125 1390.375 C -619.429688 1216.867188 -383.585938 1139.46875 -165.074219 1240.261719 C 44.800781 1332.460938 153.457031 1546.414062 299.671875 1710.21875 C 349.171875 1765.097656 404.191406 1817.445312 470.199219 1851.78125 Z M 470.152344 1851.734375 " fill-opacity="1" fill-rule="nonzero"/></g><g clip-path="url(#57ac39c10d)"><path fill="#a57f2d" d="M 298.933594 1753.148438 C 307.253906 1759.71875 315.34375 1772.957031 309.183594 1783.207031 C 284.914062 1807.105469 245.25 1795.84375 218.820312 1817.722656 C -19.734375 2004.554688 4.257812 2462.011719 -168.335938 2725.785156 C -205.523438 2792.152344 -255.761719 2848.316406 -311.011719 2899.5625 C -327.417969 2888.945312 -343.691406 2878.007812 -359.640625 2866.792969 C -303.195312 2815.039062 -252.222656 2758.140625 -214.253906 2690.808594 C -43.726562 2412.1875 -83.347656 2031.949219 156.90625 1793.226562 C 194.136719 1761.695312 252.144531 1724.054688 298.890625 1753.191406 Z M 298.933594 1753.148438 " fill-opacity="1" fill-rule="nonzero"/></g><path fill="#a57f2d" d="M 625.925781 2344.625 C 618.984375 2388.472656 584.925781 2385.023438 571.179688 2347.75 C 562.953125 2316.773438 549.257812 2287.128906 527.746094 2263.042969 C 446.984375 2177.1875 314.332031 2225.402344 240.46875 2296.550781 C 31.835938 2486.691406 156.355469 2793.394531 86.992188 3035.195312 C 83.453125 3050.179688 79.546875 3065.070312 75.273438 3079.824219 C 56.839844 3074.171875 38.59375 3068.152344 20.484375 3061.855469 C 37.71875 2999.761719 49.441406 2936.242188 52.796875 2871.757812 C 59.738281 2649.578125 20.851562 2393.621094 219.554688 2238.730469 C 362.964844 2112.566406 592.785156 2133.25 625.925781 2344.671875 Z M 625.925781 2344.625 " fill-opacity="1" fill-rule="nonzero"/><path fill="#a57f2d" d="M 386.679688 2939.640625 C 399.640625 3006.425781 398.078125 3074.308594 390.863281 3141.6875 C 371.925781 3139.988281 353.082031 3137.921875 334.328125 3135.53125 C 353.863281 2964.828125 313.230469 2757.175781 140.175781 2687.128906 C 116.550781 2677.753906 87.085938 2684.371094 69.113281 2663.367188 C 52.199219 2636.617188 98.210938 2617.910156 119.90625 2623.839844 C 269.472656 2648.753906 362.410156 2799.644531 386.679688 2939.640625 Z M 386.679688 2939.640625 " fill-opacity="1" fill-rule="nonzero"/><path fill="#a57f2d" d="M 230.21875 2348.578125 C 479.484375 2519.875 538.085938 2858.199219 510.1875 3148.125 C 501.40625 3147.941406 492.628906 3147.664062 483.804688 3147.34375 C 473.554688 3147.019531 463.394531 3146.605469 453.191406 3146.101562 C 454.523438 3133.554688 455.582031 3120.960938 456.410156 3108.367188 C 471.761719 2859.578125 424.003906 2564.917969 213.027344 2406.074219 C 111.585938 2357.265625 156.308594 2299.71875 230.171875 2348.625 Z M 230.21875 2348.578125 " fill-opacity="1" fill-rule="nonzero"/><g clip-path="url(#9becefe6d7)"><path fill="#a57f2d" d="M 49.535156 2818.027344 C 77.753906 2816.558594 98.164062 2837.976562 73.390625 2861.1875 C 0.351562 2898.921875 -42.488281 2958.027344 -72.777344 3025.867188 C -90.472656 3018.421875 -107.984375 3010.605469 -125.316406 3002.472656 C -112.996094 2974.019531 -98.609375 2946.582031 -80.867188 2920.890625 C -47.726562 2875.984375 -5.898438 2830.667969 49.535156 2818.027344 Z M 49.535156 2818.027344 " fill-opacity="1" fill-rule="nonzero"/></g><g clip-path="url(#088463e4e7)"><path fill="#a57f2d" d="M 107.402344 1533.449219 C 135.394531 1537.3125 165.867188 1582.078125 122.9375 1589.570312 C 100.691406 1594.949219 78.535156 1584.054688 56.058594 1583.960938 C 21.171875 1581.574219 -13.621094 1585.203125 -47.820312 1592.097656 C -287.015625 1644.722656 -421.09375 1872.691406 -504.382812 2084.621094 C -561.605469 2228.34375 -629.449219 2375.648438 -749.324219 2476.671875 C -760.492188 2460.769531 -771.339844 2444.683594 -781.914062 2428.414062 C -754.886719 2405.0625 -730.15625 2379.003906 -707.910156 2351.425781 C -586.703125 2191.710938 -546.53125 1988.515625 -437.640625 1821.539062 C -326.132812 1639.804688 -113.59375 1490.292969 107.355469 1533.40625 Z M 107.402344 1533.449219 " fill-opacity="1" fill-rule="nonzero"/></g><path fill="#a57f2d" d="M 995.980469 3081.664062 C 977.597656 3087.222656 959.074219 3092.507812 940.410156 3097.382812 C 925.011719 3056.523438 904.421875 3017.867188 876.292969 2984.410156 C 861.628906 2968.320312 844.761719 2954.027344 825.269531 2944.191406 C 796.957031 2935.277344 756.1875 2901.769531 802.472656 2884.902344 C 842.785156 2875.570312 879.050781 2909.308594 907.410156 2933.851562 C 947.902344 2975.722656 976.035156 3027.015625 996.027344 3081.617188 Z M 995.980469 3081.664062 " fill-opacity="1" fill-rule="nonzero"/></g></g></g></svg>