<svg xmlns="http://www.w3.org/2000/svg" xmlns:xlink="http://www.w3.org/1999/xlink" width="1080" zoomAndPan="magnify" viewBox="0 0 810 809.999993" height="1080" preserveAspectRatio="xMidYMid meet" version="1.0"><path fill="#4c4c2c" d="M 249.285156 774.105469 C 248.5625 775.5625 247.875 777.039062 247.210938 778.53125 C 242.65625 776.601562 238.148438 774.601562 233.6875 772.507812 C 234.339844 771.015625 235 769.527344 235.699219 768.058594 C 240.183594 770.152344 244.714844 772.175781 249.285156 774.105469 Z M 249.285156 774.105469 " fill-opacity="1" fill-rule="nonzero"/><path fill="#4c4c2c" d="M 286.628906 787.738281 C 286.214844 789.300781 285.777344 790.863281 285.328125 792.425781 C 280.582031 790.96875 275.886719 789.417969 271.222656 787.796875 C 271.660156 786.234375 272.085938 784.648438 272.488281 783.074219 C 277.164062 784.722656 281.882812 786.269531 286.628906 787.738281 Z M 286.628906 787.738281 " fill-opacity="1" fill-rule="nonzero"/><path fill="#4c4c2c" d="M 367.027344 803.640625 C 366.882812 805.214844 366.730469 806.789062 366.566406 808.363281 C 361.691406 807.925781 356.835938 807.394531 352.007812 806.777344 C 352.1875 805.203125 352.351562 803.628906 352.484375 802.03125 C 357.300781 802.660156 362.152344 803.191406 367.027344 803.640625 Z M 367.027344 803.640625 " fill-opacity="1" fill-rule="nonzero"/><path fill="#4c4c2c" d="M 397.699219 805.289062 C 397.570312 806.871094 397.425781 808.445312 397.273438 810.019531 C 395.011719 809.972656 392.753906 809.902344 390.480469 809.820312 C 387.839844 809.738281 385.214844 809.628906 382.597656 809.5 C 382.765625 807.9375 382.917969 806.363281 383.050781 804.800781 C 387.914062 805.050781 392.789062 805.214844 397.6875 805.289062 Z M 397.699219 805.289062 " fill-opacity="1" fill-rule="nonzero"/><path fill="#4c4c2c" d="M 422.183594 805.015625 C 422.207031 806.46875 422.3125 808.066406 422.464844 809.773438 C 417.660156 809.972656 412.832031 810.078125 407.96875 810.105469 C 407.886719 808.519531 407.816406 806.933594 407.734375 805.335938 C 412.574219 805.3125 417.378906 805.203125 422.183594 805.015625 Z M 422.183594 805.015625 " fill-opacity="1" fill-rule="nonzero"/><path fill="#4c4c2c" d="M 481.078125 798.164062 C 481.300781 799.75 481.527344 801.347656 481.75 802.933594 C 481.242188 803.027344 480.734375 803.121094 480.214844 803.226562 C 480.214844 803.226562 480.191406 803.226562 480.179688 803.226562 C 475.871094 804.03125 471.527344 804.777344 467.171875 805.453125 C 466.949219 803.867188 466.722656 802.292969 466.5 800.707031 C 471.386719 799.949219 476.25 799.109375 481.078125 798.175781 Z M 481.078125 798.164062 " fill-opacity="1" fill-rule="nonzero"/><path fill="#4c4c2c" d="M 520.601562 788.378906 C 521.214844 789.878906 521.796875 791.394531 522.351562 792.910156 C 518.800781 793.984375 515.214844 795.015625 511.621094 795.996094 C 510.425781 796.316406 509.230469 796.636719 508.046875 796.957031 C 507.476562 795.429688 506.875 793.925781 506.234375 792.4375 C 511.0625 791.171875 515.84375 789.820312 520.601562 788.378906 Z M 520.601562 788.378906 " fill-opacity="1" fill-rule="nonzero"/><path fill="#4c4c2c" d="M 559.308594 774.402344 C 559.472656 776.09375 559.628906 777.785156 559.792969 779.476562 C 555.070312 781.441406 550.304688 783.324219 545.5 785.109375 C 545.34375 783.441406 545.191406 781.773438 545.035156 780.09375 C 549.839844 778.296875 554.597656 776.390625 559.320312 774.402344 Z M 559.308594 774.402344 " fill-opacity="1" fill-rule="nonzero"/><path fill="#4c4c2c" d="M 601.484375 753.65625 C 601.519531 755.480469 601.566406 757.289062 601.613281 759.113281 C 596.808594 761.8125 591.933594 764.414062 587.011719 766.910156 C 586.925781 765.136719 586.84375 763.359375 586.773438 761.585938 C 591.730469 759.042969 596.644531 756.390625 601.484375 753.644531 Z M 601.484375 753.65625 " fill-opacity="1" fill-rule="nonzero"/><path fill="#4c4c2c" d="M 663.382812 712.300781 C 664.046875 713.164062 664.695312 714.050781 665.324219 714.9375 C 661.574219 718.109375 657.761719 721.222656 653.882812 724.261719 C 652.980469 722.972656 652.058594 721.707031 651.101562 720.453125 C 654.96875 717.4375 658.769531 714.347656 662.519531 711.1875 C 662.816406 711.566406 663.097656 711.945312 663.382812 712.3125 Z M 663.382812 712.300781 " fill-opacity="1" fill-rule="nonzero"/><path fill="#4c4c2c" d="M 708.078125 666.195312 C 708.894531 667.570312 709.710938 668.941406 710.527344 670.316406 C 707.144531 674.21875 703.6875 678.054688 700.160156 681.828125 C 699.296875 680.515625 698.445312 679.191406 697.617188 677.851562 C 701.179688 674.042969 704.671875 670.160156 708.078125 666.207031 Z M 708.078125 666.195312 " fill-opacity="1" fill-rule="nonzero"/><path fill="#4c4c2c" d="M 739.164062 625.242188 C 740.195312 626.390625 741.222656 627.546875 742.253906 628.683594 C 739.378906 633.015625 736.40625 637.289062 733.367188 641.488281 C 732.324219 640.351562 731.296875 639.203125 730.289062 638.070312 C 733.332031 633.84375 736.289062 629.570312 739.164062 625.230469 Z M 739.164062 625.242188 " fill-opacity="1" fill-rule="nonzero"/><path fill="#4c4c2c" d="M 771.847656 565.433594 C 773.019531 566.371094 774.238281 567.363281 775.480469 568.40625 C 773.398438 573.066406 771.234375 577.695312 768.984375 582.261719 C 767.824219 581.246094 766.640625 580.238281 765.445312 579.257812 C 767.671875 574.6875 769.800781 570.085938 771.847656 565.433594 Z M 771.847656 565.433594 " fill-opacity="1" fill-rule="nonzero"/><path fill="#4c4c2c" d="M 800.984375 491.015625 C 799.929688 495.832031 798.78125 500.609375 797.539062 505.367188 C 795.964844 505.203125 794.390625 505 792.828125 504.765625 C 794.058594 500.007812 795.195312 495.214844 796.238281 490.386719 C 797.871094 490.636719 799.445312 490.847656 800.972656 491.015625 Z M 800.984375 491.015625 " fill-opacity="1" fill-rule="nonzero"/><path fill="#4c4c2c" d="M 186.695312 63.082031 C 187.597656 64.371094 188.519531 65.636719 189.464844 66.878906 C 185.300781 69.542969 181.183594 72.289062 177.109375 75.105469 C 176.164062 73.863281 175.230469 72.59375 174.332031 71.316406 C 178.402344 68.5 182.519531 65.753906 186.695312 63.082031 Z M 186.695312 63.082031 " fill-opacity="1" fill-rule="nonzero"/><path fill="#4c4c2c" d="M 156.472656 90.382812 C 152.546875 93.492188 148.675781 96.675781 144.851562 99.917969 C 144.15625 98.464844 143.433594 97.007812 142.699219 95.574219 C 146.5 92.34375 150.34375 89.210938 154.261719 86.132812 C 155.019531 87.539062 155.75 88.949219 156.472656 90.382812 Z M 156.472656 90.382812 " fill-opacity="1" fill-rule="nonzero"/><path fill="#4c4c2c" d="M 115.847656 120.4375 C 116.761719 121.761719 117.683594 123.078125 118.628906 124.367188 C 115.210938 127.859375 111.851562 131.40625 108.546875 135.015625 C 107.589844 133.726562 106.632812 132.414062 105.695312 131.101562 C 109.023438 127.480469 112.40625 123.929688 115.863281 120.4375 Z M 115.847656 120.4375 " fill-opacity="1" fill-rule="nonzero"/><path fill="#4c4c2c" d="M 67.558594 179.453125 C 68.148438 181.476562 68.71875 183.511719 69.273438 185.558594 C 65.523438 191.261719 61.925781 197.070312 58.457031 202.988281 C 57.914062 200.761719 57.355469 198.5625 56.789062 196.363281 C 60.242188 190.621094 63.828125 184.988281 67.558594 179.453125 Z M 67.558594 179.453125 " fill-opacity="1" fill-rule="nonzero"/><path fill="#4c4c2c" d="M 30.542969 248.144531 C 31.949219 248.890625 33.382812 249.613281 34.824219 250.296875 C 32.921875 254.855469 31.097656 259.445312 29.359375 264.097656 C 27.914062 263.433594 26.484375 262.734375 25.0625 262 C 26.804688 257.339844 28.636719 252.722656 30.554688 248.144531 Z M 30.542969 248.144531 " fill-opacity="1" fill-rule="nonzero"/><path fill="#4c4c2c" d="M 6.152344 363.273438 C 5.667969 367.957031 5.277344 372.679688 4.96875 377.414062 C 4.957031 377.636719 4.933594 377.863281 4.921875 378.074219 C 3.289062 377.648438 1.644531 377.269531 0 376.953125 C 0.34375 372.050781 0.769531 367.152344 1.300781 362.242188 C 2.933594 362.550781 4.542969 362.882812 6.152344 363.261719 Z M 6.152344 363.273438 " fill-opacity="1" fill-rule="nonzero"/><path fill="#4c4c2c" d="M 6.519531 450.34375 C 7.253906 456.816406 8.152344 463.242188 9.195312 469.621094 C 7.808594 470.945312 6.414062 472.1875 5.003906 473.371094 C 3.953125 467.382812 3.042969 461.359375 2.261719 455.300781 C 3.726562 453.691406 5.148438 452.046875 6.519531 450.34375 Z M 6.519531 450.34375 " fill-opacity="1" fill-rule="nonzero"/><path fill="#4c4c2c" d="M 25.5 534.347656 C 24.339844 535.613281 23.167969 536.867188 21.988281 538.113281 C 20.140625 532.882812 18.390625 527.601562 16.757812 522.289062 C 17.964844 520.953125 19.160156 519.605469 20.339844 518.242188 C 21.949219 523.652344 23.667969 529.023438 25.5 534.347656 Z M 25.5 534.347656 " fill-opacity="1" fill-rule="nonzero"/><path fill="#4c4c2c" d="M 49.808594 590.570312 C 48.492188 591.265625 47.203125 592 45.914062 592.757812 C 43.617188 588.402344 41.394531 584.023438 39.261719 579.585938 C 40.554688 578.820312 41.855469 578.085938 43.15625 577.363281 C 45.285156 581.8125 47.511719 586.214844 49.808594 590.570312 Z M 49.808594 590.570312 " fill-opacity="1" fill-rule="nonzero"/><path fill="#4c4c2c" d="M 76.433594 634.175781 C 75.320312 635.179688 74.183594 636.175781 73.023438 637.144531 C 70.148438 633.050781 67.355469 628.910156 64.632812 624.71875 C 65.769531 623.726562 66.90625 622.734375 68.019531 621.703125 C 70.742188 625.914062 73.542969 630.082031 76.433594 634.1875 Z M 76.433594 634.175781 " fill-opacity="1" fill-rule="nonzero"/><path fill="#4c4c2c" d="M 117.398438 683.699219 C 116.5 684.988281 115.601562 686.265625 114.714844 687.542969 C 111.1875 683.910156 107.71875 680.207031 104.335938 676.445312 C 105.222656 675.191406 106.121094 673.914062 107.035156 672.597656 C 110.417969 676.363281 113.886719 680.066406 117.410156 683.699219 Z M 117.398438 683.699219 " fill-opacity="1" fill-rule="nonzero"/><path fill="#4c4c2c" d="M 168.875 728.5 C 167.953125 729.800781 167.015625 731.078125 166.046875 732.347656 C 162.117188 729.457031 158.226562 726.488281 154.402344 723.457031 C 155.363281 722.203125 156.296875 720.925781 157.195312 719.636719 C 161.03125 722.652344 164.921875 725.613281 168.863281 728.5 Z M 168.875 728.5 " fill-opacity="1" fill-rule="nonzero"/><path fill="#4c4c2c" d="M 189.476562 742.617188 C 188.28125 743.753906 187.074219 744.902344 185.867188 746.023438 C 181.644531 743.292969 177.464844 740.476562 173.347656 737.589844 C 174.554688 736.488281 175.75 735.363281 176.933594 734.25 C 181.0625 737.125 185.242188 739.917969 189.488281 742.628906 Z M 189.476562 742.617188 " fill-opacity="1" fill-rule="nonzero"/><path fill="#4c4c2c" d="M 218.90625 44.457031 C 219.546875 45.886719 220.160156 47.332031 220.765625 48.785156 C 216.410156 51.046875 212.089844 53.390625 207.832031 55.816406 C 207.238281 54.359375 206.636719 52.90625 205.996094 51.449219 C 210.257812 49.035156 214.550781 46.714844 218.90625 44.457031 Z M 218.90625 44.457031 " fill-opacity="1" fill-rule="nonzero"/><path fill="#4c4c2c" d="M 252.464844 28.929688 C 253.046875 30.398438 253.601562 31.863281 254.160156 33.34375 C 249.601562 35.203125 245.082031 37.140625 240.609375 39.164062 C 240.054688 37.699219 239.484375 36.230469 238.894531 34.777344 C 243.378906 32.753906 247.910156 30.800781 252.464844 28.941406 Z M 252.464844 28.929688 " fill-opacity="1" fill-rule="nonzero"/><path fill="#4c4c2c" d="M 287.957031 16.328125 C 288.441406 17.84375 288.949219 19.34375 289.480469 20.847656 C 284.675781 22.304688 279.910156 23.839844 275.175781 25.460938 C 274.667969 23.972656 274.179688 22.46875 273.71875 20.953125 C 278.429688 19.320312 283.1875 17.78125 287.96875 16.339844 Z M 287.957031 16.328125 " fill-opacity="1" fill-rule="nonzero"/><path fill="#4c4c2c" d="M 345.488281 3.441406 C 344.589844 5.179688 343.714844 6.929688 342.851562 8.683594 C 336.757812 9.628906 330.710938 10.71875 324.710938 11.949219 C 325.503906 10.148438 326.320312 8.351562 327.148438 6.578125 C 333.230469 5.394531 339.335938 4.339844 345.488281 3.441406 Z M 345.488281 3.441406 " fill-opacity="1" fill-rule="nonzero"/><path fill="#4c4c2c" d="M 445.507812 1.179688 C 444.664062 2.742188 443.800781 4.28125 442.925781 5.820312 C 439.257812 5.476562 435.578125 5.191406 431.875 4.957031 C 430.074219 4.824219 428.277344 4.71875 426.488281 4.613281 C 426.644531 4.363281 426.796875 4.101562 426.949219 3.855469 C 427.730469 2.554688 428.511719 1.25 429.257812 -0.0507812 C 434.691406 0.246094 440.109375 0.660156 445.507812 1.179688 Z M 445.507812 1.179688 " fill-opacity="1" fill-rule="nonzero"/><path fill="#4c4c2c" d="M 494.257812 9.050781 C 493.796875 10.589844 493.347656 12.136719 492.898438 13.6875 C 488.082031 12.613281 483.230469 11.617188 478.34375 10.71875 C 478.792969 9.15625 479.242188 7.59375 479.691406 6.042969 C 484.566406 6.957031 489.417969 7.960938 494.246094 9.0625 Z M 494.257812 9.050781 " fill-opacity="1" fill-rule="nonzero"/><path fill="#4c4c2c" d="M 576.207031 37.355469 C 576.003906 38.953125 575.792969 40.550781 575.566406 42.136719 C 571.082031 40.019531 566.550781 37.96875 561.984375 36.007812 C 562.195312 34.410156 562.371094 32.8125 562.539062 31.214844 C 567.128906 33.179688 571.6875 35.226562 576.207031 37.34375 Z M 576.207031 37.355469 " fill-opacity="1" fill-rule="nonzero"/><path fill="#4c4c2c" d="M 617.695312 59.945312 C 617.234375 61.425781 616.722656 62.902344 616.179688 64.359375 C 611.894531 61.671875 607.554688 59.082031 603.164062 56.5625 C 603.648438 55.082031 604.097656 53.589844 604.488281 52.074219 C 608.9375 54.609375 613.339844 57.234375 617.695312 59.945312 Z M 617.695312 59.945312 " fill-opacity="1" fill-rule="nonzero"/><path fill="#4c4c2c" d="M 644 77.742188 C 643.433594 79.210938 642.851562 80.664062 642.25 82.121094 C 638.191406 79.117188 634.082031 76.191406 629.90625 73.351562 C 630.472656 71.898438 631.019531 70.429688 631.550781 68.960938 C 635.753906 71.8125 639.894531 74.75 643.988281 77.753906 Z M 644 77.742188 " fill-opacity="1" fill-rule="nonzero"/><path fill="#4c4c2c" d="M 667.121094 96.015625 L 665.097656 100.34375 C 661.21875 97.007812 657.265625 93.742188 653.253906 90.558594 C 653.953125 89.054688 654.625 87.648438 655.265625 86.308594 C 659.277344 89.46875 663.230469 92.710938 667.132812 96.027344 Z M 667.121094 96.015625 " fill-opacity="1" fill-rule="nonzero"/><path fill="#4c4c2c" d="M 719.863281 149.867188 C 718.953125 151.300781 718.054688 152.730469 717.15625 154.175781 C 713.972656 150.210938 710.71875 146.304688 707.390625 142.472656 C 708.269531 141.039062 709.144531 139.621094 710.007812 138.222656 C 713.367188 142.046875 716.644531 145.925781 719.863281 149.878906 Z M 719.863281 149.867188 " fill-opacity="1" fill-rule="nonzero"/><path fill="#4c4c2c" d="M 746.964844 187.285156 C 746.371094 189.546875 745.863281 191.816406 745.425781 194.113281 C 741.875 188.398438 738.195312 182.777344 734.371094 177.25 C 734.976562 175.320312 735.613281 173.40625 736.3125 171.5 C 739.980469 176.683594 743.53125 181.9375 746.964844 187.285156 Z M 746.964844 187.285156 " fill-opacity="1" fill-rule="nonzero"/><path fill="#4c4c2c" d="M 769.257812 226.84375 C 768.347656 228.75 767.421875 230.65625 766.488281 232.546875 C 763.777344 226.878906 760.925781 221.28125 757.96875 215.769531 L 758.144531 215.320312 C 758.902344 213.507812 759.671875 211.710938 760.429688 209.910156 C 763.507812 215.472656 766.453125 221.117188 769.257812 226.84375 Z M 769.257812 226.84375 " fill-opacity="1" fill-rule="nonzero"/><path fill="#4c4c2c" d="M 801.289062 320.316406 C 799.492188 319.40625 797.714844 318.496094 795.929688 317.558594 C 794.472656 311.039062 792.851562 304.566406 791.078125 298.164062 C 793.007812 299.195312 794.9375 300.222656 796.863281 301.265625 C 798.496094 307.558594 799.964844 313.914062 801.289062 320.328125 Z M 801.289062 320.316406 " fill-opacity="1" fill-rule="nonzero"/><path fill="#4c4c2c" d="M 808.992188 372.632812 C 809.457031 378.277344 809.785156 383.898438 810.011719 389.507812 C 808.402344 390.582031 806.828125 391.695312 805.289062 392.867188 C 805.136719 387.058594 804.839844 381.257812 804.425781 375.496094 C 805.929688 374.515625 807.445312 373.554688 808.992188 372.632812 Z M 808.992188 372.632812 " fill-opacity="1" fill-rule="nonzero"/><path fill="#4c4c2c" d="M 760.429688 209.910156 C 763.507812 215.484375 766.453125 221.128906 769.257812 226.84375 C 738.441406 291.066406 700.683594 345.9375 622.769531 385.023438 C 589.09375 402.488281 551.308594 411.539062 519.773438 433.160156 C 451.089844 481.628906 429.53125 571.210938 423.542969 650.71875 C 420.265625 700.761719 420.085938 751.03125 422.335938 801.132812 C 422.039062 803.394531 422.171875 806.386719 422.453125 809.773438 C 417.648438 809.972656 412.820312 810.078125 407.957031 810.101562 C 407.070312 792.589844 406.371094 775.050781 406.183594 757.515625 C 405.980469 667.25 405.992188 571.480469 450.699219 490.304688 C 488.804688 416.40625 546.539062 403.117188 615.992188 371.910156 C 681.265625 339.628906 730.988281 282.484375 758.132812 215.332031 C 758.890625 213.519531 759.660156 211.722656 760.417969 209.921875 Z M 760.429688 209.910156 " fill-opacity="1" fill-rule="nonzero"/><path fill="#4c4c2c" d="M 710.007812 138.199219 C 713.367188 142.023438 716.644531 145.902344 719.863281 149.855469 C 714.964844 157.582031 710.171875 165.382812 705.710938 173.355469 C 687.582031 205.355469 674.210938 240.097656 667.003906 276.191406 C 664.1875 290.542969 661.929688 304.96875 660.722656 319.570312 C 657.90625 330.363281 666.28125 360.160156 653.644531 362.824219 C 640.757812 357.34375 646.910156 338.527344 645.550781 327.382812 C 648.058594 276 661.953125 225.105469 685.617188 179.453125 C 694.269531 163.867188 702.457031 150.4375 709.996094 138.199219 Z M 710.007812 138.199219 " fill-opacity="1" fill-rule="nonzero"/><path fill="#4c4c2c" d="M 796.863281 301.253906 C 798.496094 307.546875 799.976562 313.902344 801.300781 320.316406 C 787.765625 313.488281 774.652344 305.691406 760.605469 300.046875 C 755.625 298.390625 750.511719 297.148438 745.269531 296.734375 C 739.839844 296.082031 734.171875 298.070312 728.988281 295.84375 C 723.011719 294.011719 723.296875 288.4375 727.910156 285.054688 C 736.21875 279.421875 747.707031 282.023438 756.984375 283.644531 C 771.164062 287.382812 783.988281 294.355469 796.863281 301.265625 Z M 796.863281 301.253906 " fill-opacity="1" fill-rule="nonzero"/><path fill="#4c4c2c" d="M 800.996094 491.015625 C 799.941406 495.832031 798.78125 500.609375 797.550781 505.367188 C 760.335938 501.285156 726.410156 482.554688 696.292969 461.097656 C 668.71875 440.96875 641.8125 418.867188 608.996094 407.800781 C 601.140625 405.078125 593.082031 402.996094 584.773438 402.261719 C 579.792969 402.085938 574.277344 402.371094 570.445312 398.605469 C 566.609375 395.601562 570.394531 390.820312 573.625 389.082031 C 582.929688 385 594.039062 388.703125 603.566406 390.609375 C 671.667969 408.476562 715.804688 473.949219 785.363281 488.386719 C 791.125 489.570312 796.273438 490.46875 801.007812 491.003906 Z M 800.996094 491.015625 " fill-opacity="1" fill-rule="nonzero"/><path fill="#4c4c2c" d="M 808.992188 372.632812 C 809.457031 378.277344 809.796875 383.898438 810.011719 389.507812 C 803.078125 394.144531 796.722656 399.589844 791.242188 406.0625 C 772.785156 427.683594 757.425781 452.746094 729.507812 462.105469 C 720.421875 464.257812 707.960938 469.027344 700.660156 460.863281 C 695.417969 454.320312 706.753906 449.964844 712.066406 450.542969 C 719.191406 449.976562 726.160156 448.128906 732.492188 444.816406 C 753.339844 433.765625 765.304688 412.808594 780.59375 395.8125 C 788.320312 387.058594 798.15625 379.140625 808.980469 372.644531 Z M 808.992188 372.632812 " fill-opacity="1" fill-rule="nonzero"/><path fill="#4c4c2c" d="M 734.882812 620.460938 C 737.332031 623.207031 739.78125 625.953125 742.253906 628.683594 C 739.378906 633.015625 736.40625 637.289062 733.367188 641.488281 C 701.464844 606.699219 687.039062 573.894531 683.59375 519.140625 C 682.082031 491.121094 679.582031 461.289062 661.785156 438.332031 C 655.324219 431.753906 654.542969 418.59375 667.324219 423.8125 C 676.058594 429.304688 680.519531 439.882812 685.144531 448.769531 C 702.363281 485.714844 694.210938 527.933594 706.171875 566.25 C 711.617188 586.414062 720.800781 605.113281 734.894531 620.460938 Z M 734.882812 620.460938 " fill-opacity="1" fill-rule="nonzero"/><path fill="#4c4c2c" d="M 628.4375 584.902344 C 630.757812 628.257812 614.476562 669.273438 604.75 710.796875 C 601.410156 726.714844 601.117188 742.925781 601.613281 759.125 C 596.808594 761.824219 591.933594 764.414062 587.011719 766.921875 C 586.183594 750.285156 586.289062 733.566406 588.632812 717.128906 C 592.914062 690.03125 603.128906 664.339844 608.570312 637.488281 C 623.929688 574.453125 605.71875 501.5 549.523438 464.671875 C 540.28125 458.710938 530.445312 453.394531 519.640625 450.980469 C 512.140625 448.566406 498.757812 452.34375 496.285156 442.4375 C 500.28125 429.742188 520.835938 436.117188 530.175781 438.542969 C 590.039062 460.117188 626.890625 522.894531 628.464844 584.890625 Z M 628.4375 584.902344 " fill-opacity="1" fill-rule="nonzero"/><path fill="#4c4c2c" d="M 710.539062 670.316406 C 707.15625 674.21875 703.699219 678.054688 700.171875 681.828125 C 695.949219 675.34375 691.996094 668.65625 688.316406 661.820312 C 673.359375 634.363281 655.050781 609.113281 624.023438 599.527344 C 614.015625 592.746094 624.960938 585.28125 633.078125 587.730469 C 672.425781 598.910156 690.8125 637.40625 710.539062 670.316406 Z M 710.539062 670.316406 " fill-opacity="1" fill-rule="nonzero"/><path fill="#4c4c2c" d="M 476.402344 723.613281 C 476.414062 723.445312 476.425781 723.28125 476.4375 723.117188 C 475.054688 748 477.445312 772.839844 480.984375 797.453125 C 481.230469 799.277344 481.492188 801.109375 481.75 802.921875 C 476.921875 803.855469 472.058594 804.695312 467.171875 805.441406 C 465.421875 793.121094 463.777344 780.78125 462.617188 768.402344 C 456.121094 714.121094 469.304688 659.617188 496.957031 612.792969 C 523.640625 568.699219 554.148438 525.589844 559.25 472.945312 C 561.898438 466.496094 567.769531 466.78125 570.917969 472.945312 C 576.382812 491.902344 563.152344 521.59375 555.984375 539.636719 C 541.84375 572.003906 519.453125 600.933594 503.300781 632.011719 C 489.632812 659.261719 479.054688 688.621094 476.710938 719.199219 L 476.699219 719.199219 C 476.640625 720.667969 476.507812 722.144531 476.414062 723.613281 Z M 476.402344 723.613281 " fill-opacity="1" fill-rule="nonzero"/><path fill="#4c4c2c" d="M 552.019531 722.902344 C 555.746094 741.503906 558.042969 760.496094 559.78125 779.476562 C 555.058594 781.441406 550.292969 783.324219 545.488281 785.109375 C 544.007812 768.664062 542.042969 752.308594 539.367188 735.789062 C 534.042969 704.539062 523.9375 671.226562 499.113281 649.902344 C 486.78125 641.476562 491.796875 628.613281 506.117188 636.613281 C 532.566406 657.015625 545.699219 691.414062 552.019531 722.914062 Z M 552.019531 722.902344 " fill-opacity="1" fill-rule="nonzero"/><path fill="#4c4c2c" d="M 576.207031 37.355469 C 574.324219 52.679688 571.023438 67.414062 566.8125 80.5 C 545.226562 145.347656 496.601562 195.472656 451.339844 244.75 C 411.933594 287.644531 384.964844 342.953125 385.367188 402.015625 C 385.839844 439.609375 396.136719 492.8125 437.496094 504.621094 C 444.050781 506.03125 451.742188 505.144531 455.066406 511.535156 C 455.730469 517.128906 448.773438 520.550781 443.933594 520.324219 C 395.558594 517.390625 374.90625 462.269531 371.371094 420.582031 C 364.054688 340.351562 402.492188 271.148438 457.695312 215.921875 C 507.535156 164.199219 555.296875 101.503906 562.539062 31.214844 C 567.128906 33.179688 571.6875 35.226562 576.207031 37.34375 Z M 576.207031 37.355469 " fill-opacity="1" fill-rule="nonzero"/><path fill="#4c4c2c" d="M 676.035156 110.070312 C 679.984375 113.726562 683.867188 117.457031 687.675781 121.265625 C 668.035156 170.683594 632.472656 208.480469 581.851562 244.132812 C 539.746094 272.449219 492.402344 292.308594 449.859375 319.832031 C 429.910156 332.847656 412.632812 349.804688 399.261719 369.53125 C 392.421875 376.820312 385.464844 402.324219 375.34375 400.121094 C 364.433594 391.128906 379.746094 374.761719 384.195312 365.542969 C 405.320312 331.121094 438.738281 306.921875 473.730469 288.320312 C 532.683594 256.78125 594.382812 226.691406 638.214844 174.503906 C 655.585938 155.808594 667.75 133.714844 676.035156 110.070312 Z M 676.035156 110.070312 " fill-opacity="1" fill-rule="nonzero"/><path fill="#4c4c2c" d="M 604.488281 52.0625 C 608.949219 54.609375 613.339844 57.234375 617.695312 59.933594 C 609.019531 87.671875 586.121094 112.261719 556.726562 114.710938 C 550.835938 114.261719 543.804688 107.480469 550.976562 103.054688 C 555 99.800781 560.421875 99.953125 565.09375 98.167969 C 585.449219 90.746094 599.082031 72.488281 604.488281 52.0625 Z M 604.488281 52.0625 " fill-opacity="1" fill-rule="nonzero"/><path fill="#4c4c2c" d="M 631.5625 68.949219 C 635.765625 71.800781 639.90625 74.726562 644 77.730469 C 627.683594 119.988281 598.570312 157.300781 561.617188 183.59375 C 536.90625 200.894531 508.839844 217.292969 477.976562 218.335938 C 472.675781 217.886719 465.953125 212.078125 471.871094 207.472656 C 477.042969 202.445312 484.851562 203.617188 491.359375 201.851562 C 506.804688 198.597656 521.132812 191.6875 534.613281 183.652344 C 578.539062 157.878906 614.214844 116.921875 631.5625 68.949219 Z M 631.5625 68.949219 " fill-opacity="1" fill-rule="nonzero"/><path fill="#4c4c2c" d="M 655.265625 86.296875 C 659.277344 89.46875 663.230469 92.699219 667.121094 96.015625 C 659.089844 113.171875 650.828125 130.246094 645.042969 148.351562 C 642.226562 156.472656 639.789062 164.707031 637.988281 173.121094 C 635.421875 181.085938 637.929688 194.964844 627.632812 197.4375 C 607.480469 190.433594 640.945312 116.402344 655.253906 86.296875 Z M 655.265625 86.296875 " fill-opacity="1" fill-rule="nonzero"/><path fill="#4c4c2c" d="M 546.019531 406.570312 C 541.582031 391.28125 535.039062 376.667969 528.054688 362.382812 C 517.359375 339.582031 501.527344 316.019531 474.6875 311.996094 C 466.878906 311.820312 454.617188 305.335938 465.609375 298.425781 C 484.117188 291.691406 514.257812 311.796875 524.421875 327.097656 C 537.710938 345.804688 547.179688 367.082031 555.546875 388.371094 C 557.472656 395.613281 565.652344 407.894531 555.121094 411.742188 C 551.296875 412.820312 547.121094 410.476562 546.019531 406.570312 Z M 546.019531 406.570312 " fill-opacity="1" fill-rule="nonzero"/><path fill="#4c4c2c" d="M 506.957031 153.820312 C 511.832031 158.847656 517.867188 172.765625 505.546875 170.964844 C 492.449219 167.050781 485.574219 144.765625 480.308594 133.101562 C 469.707031 102.414062 466.132812 68.808594 471.742188 36.738281 C 473.929688 26.207031 476.78125 16.042969 479.703125 6.042969 C 484.578125 6.957031 489.445312 7.960938 494.257812 9.0625 C 491.726562 17.675781 489.230469 26.277344 487.136719 34.917969 C 480.425781 68.242188 484.367188 104.523438 497.253906 135.738281 C 499.917969 142.058594 503.300781 148.046875 506.957031 153.832031 Z M 506.957031 153.820312 " fill-opacity="1" fill-rule="nonzero"/><path fill="#4c4c2c" d="M 443.054688 240.203125 C 448.203125 248.6875 432.714844 251.46875 427.023438 249.125 C 370.578125 235.304688 326.910156 184.386719 312.496094 129.253906 C 300.722656 87.8125 309.242188 44.882812 327.148438 6.589844 C 333.230469 5.40625 339.335938 4.351562 345.488281 3.453125 C 333.691406 26.433594 324.285156 50.480469 322.273438 76.558594 C 317.539062 137.644531 352.910156 199.128906 407.390625 226.609375 C 414.394531 229.886719 421.566406 232.773438 429.128906 234.488281 C 434.144531 235.292969 439.765625 235.8125 443.066406 240.214844 Z M 443.054688 240.203125 " fill-opacity="1" fill-rule="nonzero"/><path fill="#4c4c2c" d="M 429.269531 -0.0625 C 434.703125 0.234375 440.121094 0.648438 445.507812 1.179688 C 433.53125 23.414062 417.402344 43.070312 404.230469 64.585938 C 381.429688 102.144531 373.996094 148.386719 382.445312 191.390625 C 383.949219 200.941406 388.800781 209.980469 389.121094 219.625 C 388.421875 227.933594 381.804688 229.339844 376.800781 222.773438 C 357.972656 178.101562 361.109375 124.722656 379.59375 80.3125 C 391.226562 52.417969 411.34375 29.4375 426.976562 3.855469 C 427.753906 2.554688 428.535156 1.25 429.28125 -0.0507812 Z M 429.269531 -0.0625 " fill-opacity="1" fill-rule="nonzero"/><path fill="#4c4c2c" d="M 310.121094 58.453125 C 316.972656 63.671875 323.148438 78.464844 308.640625 75.519531 C 292.785156 65.519531 281.066406 44.820312 273.707031 20.941406 C 278.417969 19.320312 283.175781 17.78125 287.957031 16.339844 C 290.441406 24.089844 293.480469 31.664062 297.113281 38.964844 C 300.746094 45.921875 304.914062 52.585938 310.121094 58.464844 Z M 310.121094 58.453125 " fill-opacity="1" fill-rule="nonzero"/><path fill="#4c4c2c" d="M 375.34375 301.160156 C 382.386719 302.636719 404.042969 295.585938 401.484375 308.164062 C 394.976562 319.679688 378.171875 315.558594 367.144531 315.167969 C 322.011719 308.496094 281.457031 278.863281 256.585938 241.246094 C 239.640625 213.875 231.332031 182.054688 226.683594 150.449219 C 221.890625 117.054688 219.6875 82.582031 205.996094 51.449219 C 210.257812 49.035156 214.550781 46.703125 218.90625 44.457031 C 222.859375 53.34375 226.160156 62.523438 228.824219 71.910156 C 244.371094 134.851562 238.007812 209.851562 289.152344 258.015625 C 312.4375 280.699219 342.390625 298.648438 375.355469 301.160156 Z M 375.34375 301.160156 " fill-opacity="1" fill-rule="nonzero"/><path fill="#4c4c2c" d="M 264.015625 65.792969 C 270.714844 95.660156 266.738281 126.484375 260.976562 156.164062 C 259 167.203125 257.128906 178.246094 256.242188 189.4375 C 255.011719 197.378906 258.300781 205.921875 254.917969 213.378906 C 252.40625 219.378906 246.503906 217.402344 243.78125 212.644531 C 236.789062 191.390625 244.90625 167.722656 247.757812 146.152344 C 256.667969 106.109375 253.246094 70.394531 238.882812 34.765625 C 243.367188 32.738281 247.898438 30.789062 252.464844 28.929688 C 257.257812 41.082031 261.023438 53.625 264.015625 65.792969 Z M 264.015625 65.792969 " fill-opacity="1" fill-rule="nonzero"/><path fill="#4c4c2c" d="M 223.390625 94.320312 C 232.125 100.828125 222.457031 107.953125 214.789062 105.667969 C 199.453125 99.964844 185.488281 87.03125 174.320312 71.304688 C 178.390625 68.488281 182.507812 65.742188 186.683594 63.070312 C 191.453125 69.886719 196.933594 76.191406 203.382812 81.695312 C 209.085938 87.46875 216.859375 89.929688 223.390625 94.308594 Z M 223.390625 94.320312 " fill-opacity="1" fill-rule="nonzero"/><path fill="#4c4c2c" d="M 386.976562 476.246094 C 411.875 484.257812 402.480469 497.925781 386.871094 492.363281 C 326.199219 465.109375 300.710938 397.292969 252.515625 355.261719 C 217.960938 323.226562 163.335938 310.707031 121.019531 334.160156 C 70.703125 357.960938 56.410156 402.441406 28.152344 445.703125 C 20.660156 457.527344 13.125 466.625 4.992188 473.382812 C 3.941406 467.394531 3.03125 461.371094 2.261719 455.3125 C 7.207031 449.917969 11.597656 443.882812 15.597656 437.917969 C 33.5 411.71875 45.75 381.792969 66.363281 357.460938 C 106.464844 312.789062 167.183594 292.863281 223.4375 318.8125 C 277.472656 342.550781 305.445312 397.636719 343.085938 439.8125 C 355.832031 453.941406 369.996094 467.417969 386.988281 476.257812 Z M 386.976562 476.246094 " fill-opacity="1" fill-rule="nonzero"/><path fill="#4c4c2c" d="M 239.898438 328.042969 C 243.355469 335.203125 240.078125 341.605469 231.535156 337.960938 C 200.042969 310.292969 184.046875 267.492188 175.761719 227.117188 C 168.460938 182.988281 163.277344 135.574219 142.6875 95.574219 C 146.484375 92.355469 150.34375 89.210938 154.25 86.144531 C 164.355469 104.984375 171.480469 125.515625 176.601562 146.152344 C 185.902344 183.6875 186.519531 223.082031 199.652344 259.71875 C 205.039062 275.148438 212.136719 289.964844 221.355469 303.476562 C 227.132812 312.425781 234.230469 319.691406 239.886719 328.054688 Z M 239.898438 328.042969 " fill-opacity="1" fill-rule="nonzero"/><path fill="#4c4c2c" d="M 179.523438 174.824219 C 178.472656 180.292969 171.207031 181.816406 166.460938 180.316406 C 139.730469 170.648438 120.925781 152.566406 105.683594 131.101562 C 108.996094 127.492188 112.382812 123.929688 115.835938 120.4375 C 119.105469 125.207031 122.59375 129.820312 126.394531 134.246094 C 136.558594 145.597656 148.734375 155.167969 162.105469 162.433594 C 168.058594 165.902344 177.953125 166.945312 179.511719 174.824219 Z M 179.523438 174.824219 " fill-opacity="1" fill-rule="nonzero"/><path fill="#4c4c2c" d="M 129.125 313.109375 C 133.601562 318.71875 132.996094 326.71875 123.957031 325.0625 C 95.613281 311.621094 76.800781 264.59375 67.09375 235.957031 C 63.035156 222.597656 60.101562 209.320312 56.789062 196.375 C 60.230469 190.644531 63.828125 185 67.558594 179.464844 C 74.953125 204.894531 79.140625 231.800781 90.21875 255.847656 C 96.050781 269.328125 102.726562 282.53125 111.636719 294.257812 C 116.691406 301.253906 123.089844 307.039062 129.136719 313.121094 Z M 129.125 313.109375 " fill-opacity="1" fill-rule="nonzero"/><path fill="#4c4c2c" d="M 84.042969 255.789062 C 90.0625 256.191406 90.527344 261.941406 87.164062 265.894531 C 79.757812 273.90625 66.707031 272.78125 56.695312 272.121094 C 45.5 270.722656 34.933594 267.089844 25.050781 262 C 26.789062 257.339844 28.625 252.722656 30.542969 248.144531 C 41.867188 254.167969 54.28125 258.285156 67.179688 257.835938 C 72.691406 257.894531 78.726562 254.429688 84.042969 255.789062 Z M 84.042969 255.789062 " fill-opacity="1" fill-rule="nonzero"/><path fill="#4c4c2c" d="M 342.898438 450.863281 C 345.039062 452.554688 347.121094 455.964844 345.535156 458.601562 C 339.289062 464.757812 329.078125 461.855469 322.273438 467.488281 C 260.855469 515.59375 267.035156 633.371094 222.597656 701.28125 C 213.027344 718.371094 200.09375 732.832031 185.867188 746.023438 C 181.644531 743.292969 177.453125 740.476562 173.347656 737.589844 C 187.878906 724.261719 201.003906 709.613281 210.777344 692.277344 C 254.679688 620.542969 244.480469 522.644531 306.332031 461.183594 C 315.917969 453.066406 330.851562 443.371094 342.886719 450.875 Z M 342.898438 450.863281 " fill-opacity="1" fill-rule="nonzero"/><path fill="#4c4c2c" d="M 427.082031 603.148438 C 425.292969 614.4375 416.527344 613.550781 412.988281 603.953125 C 410.871094 595.976562 407.34375 588.34375 401.804688 582.144531 C 381.011719 560.039062 346.863281 572.453125 327.847656 590.769531 C 274.132812 639.726562 306.191406 718.691406 288.332031 780.945312 C 287.421875 784.804688 286.417969 788.636719 285.316406 792.4375 C 280.570312 790.980469 275.875 789.429688 271.210938 787.808594 C 275.648438 771.824219 278.664062 755.46875 279.53125 738.867188 C 281.316406 681.664062 271.304688 615.761719 322.460938 575.882812 C 359.382812 543.402344 418.550781 548.726562 427.082031 603.160156 Z M 427.082031 603.148438 " fill-opacity="1" fill-rule="nonzero"/><path fill="#4c4c2c" d="M 365.488281 756.34375 C 368.824219 773.539062 368.421875 791.015625 366.566406 808.363281 C 361.691406 807.925781 356.835938 807.394531 352.007812 806.777344 C 357.039062 762.828125 346.578125 709.367188 302.023438 691.332031 C 295.941406 688.917969 288.359375 690.621094 283.730469 685.214844 C 279.375 678.324219 291.222656 673.511719 296.808594 675.035156 C 335.3125 681.449219 359.238281 720.300781 365.488281 756.34375 Z M 365.488281 756.34375 " fill-opacity="1" fill-rule="nonzero"/><path fill="#4c4c2c" d="M 325.207031 604.164062 C 389.378906 648.269531 404.46875 735.375 397.285156 810.019531 C 395.023438 809.972656 392.765625 809.902344 390.492188 809.820312 C 387.851562 809.738281 385.238281 809.628906 382.609375 809.5 C 382.953125 806.269531 383.226562 803.027344 383.4375 799.785156 C 387.390625 735.730469 375.097656 659.867188 320.78125 618.96875 C 294.664062 606.402344 306.179688 591.585938 325.195312 604.175781 Z M 325.207031 604.164062 " fill-opacity="1" fill-rule="nonzero"/><path fill="#4c4c2c" d="M 278.691406 725.03125 C 285.957031 724.652344 291.210938 730.167969 284.832031 736.144531 C 266.027344 745.859375 255 761.078125 247.199219 778.542969 C 242.644531 776.625 238.136719 774.613281 233.675781 772.519531 C 236.847656 765.195312 240.550781 758.132812 245.117188 751.515625 C 253.648438 739.953125 264.417969 728.285156 278.691406 725.03125 Z M 278.691406 725.03125 " fill-opacity="1" fill-rule="nonzero"/><path fill="#4c4c2c" d="M 293.589844 394.300781 C 300.792969 395.292969 308.640625 406.820312 297.585938 408.75 C 291.859375 410.132812 286.15625 407.328125 280.371094 407.304688 C 271.386719 406.6875 262.429688 407.625 253.625 409.398438 C 192.046875 422.949219 157.527344 481.640625 136.085938 536.207031 C 121.351562 573.210938 103.886719 611.136719 73.023438 637.144531 C 70.148438 633.050781 67.355469 628.910156 64.632812 624.71875 C 71.59375 618.710938 77.957031 612 83.6875 604.898438 C 114.890625 563.777344 125.234375 511.460938 153.265625 468.472656 C 181.976562 421.683594 236.691406 383.1875 293.574219 394.289062 Z M 293.589844 394.300781 " fill-opacity="1" fill-rule="nonzero"/><path fill="#4c4c2c" d="M 152.4375 501.78125 C 175.359375 522.527344 175.597656 557.898438 168.164062 585.859375 C 158.828125 623.691406 136.804688 655.972656 114.714844 687.542969 C 111.175781 683.910156 107.71875 680.207031 104.335938 676.445312 C 133.800781 634.566406 180.367188 564.796875 145.351562 515.167969 C 137.871094 507.488281 140.023438 495.382812 152.4375 501.78125 Z M 152.4375 501.78125 " fill-opacity="1" fill-rule="nonzero"/><path fill="#4c4c2c" d="M 234.777344 405.613281 C 242.335938 402.726562 243.566406 412.144531 241.105469 417.304688 C 236.539062 425.328125 232.445312 433.632812 229.460938 442.390625 C 220.753906 468.316406 217.367188 495.6875 215.523438 522.871094 C 211.332031 589.160156 208.613281 676.339844 166.058594 732.347656 C 162.117188 729.457031 158.238281 726.488281 154.414062 723.472656 C 180.957031 688.609375 189.75 638.980469 195.265625 597.207031 C 201.371094 545.496094 198.234375 493.121094 213.710938 443.007812 C 218.386719 431.328125 222.871094 411.125 234.789062 405.613281 Z M 234.777344 405.613281 " fill-opacity="1" fill-rule="nonzero"/><path fill="#4c4c2c" d="M 157.113281 428.085938 C 167.003906 429.597656 189.179688 427.574219 189.074219 441.621094 C 185.878906 446.53125 178.910156 446.308594 173.867188 444.875 C 164.308594 443.089844 154.582031 442.320312 144.863281 443.113281 C 120.238281 444.898438 97.472656 456.566406 79.273438 472.886719 C 58.480469 492.847656 41.832031 517.25 21.988281 538.113281 C 20.128906 532.882812 18.390625 527.601562 16.757812 522.289062 C 30.4375 507.121094 42.519531 490.46875 56.078125 475.242188 C 56.171875 475.132812 56.257812 475.039062 56.351562 474.933594 C 81.484375 446.285156 118.300781 426.179688 157.101562 428.070312 Z M 157.113281 428.085938 " fill-opacity="1" fill-rule="nonzero"/><path fill="#4c4c2c" d="M 108.394531 571.222656 C 120.003906 582.109375 105 586.097656 95.671875 581.941406 C 77.566406 578.664062 61.109375 583.8125 45.914062 592.757812 C 43.617188 588.414062 41.40625 584.023438 39.261719 579.585938 C 60.621094 566.9375 83.804688 560.785156 108.394531 571.222656 Z M 108.394531 571.222656 " fill-opacity="1" fill-rule="nonzero"/><path fill="#4c4c2c" d="M 52.089844 388.738281 C 54.730469 394.3125 51.617188 398.382812 45.453125 397.410156 C 36.636719 395.554688 30.035156 388.074219 21.75 384.585938 C 14.792969 380.878906 7.492188 378.441406 0 376.953125 C 0.34375 372.066406 0.769531 367.152344 1.300781 362.242188 C 7.597656 363.425781 13.796875 365.128906 19.832031 367.425781 C 30.730469 373 45.40625 378.125 52.089844 388.726562 Z M 52.089844 388.738281 " fill-opacity="1" fill-rule="nonzero"/><path fill="#4c4c2c" d="M 775.480469 568.40625 C 773.398438 573.066406 771.234375 577.695312 768.984375 582.261719 C 754.335938 569.433594 737.578125 559.316406 717.757812 557.386719 C 710.835938 556.464844 703.238281 559.199219 696.90625 555.507812 C 691.640625 553.140625 693.050781 547.921875 697.226562 545.199219 C 717.414062 536.917969 743.460938 547.140625 761.269531 557.765625 C 764.121094 559.398438 769.507812 563.433594 775.480469 568.417969 Z M 775.480469 568.40625 " fill-opacity="1" fill-rule="nonzero"/><path fill="#4c4c2c" d="M 751.519531 249.328125 C 751.625 256.722656 746.585938 259.28125 740.796875 254.59375 C 733.554688 247.28125 732.726562 235.707031 730.503906 226.074219 C 727.390625 207.6875 729.96875 188.929688 736.3125 171.5 C 739.980469 176.683594 743.53125 181.9375 746.964844 187.285156 C 744.488281 196.726562 743.355469 206.46875 744.253906 216.417969 C 744.453125 227.875 749.589844 238.335938 751.519531 249.316406 Z M 751.519531 249.328125 " fill-opacity="1" fill-rule="nonzero"/><path fill="#4c4c2c" d="M 663.382812 712.300781 C 664.046875 713.164062 664.695312 714.050781 665.324219 714.9375 C 661.574219 718.109375 657.761719 721.210938 653.882812 724.261719 C 642.746094 708.394531 627.707031 694.113281 608.050781 690.644531 C 599.304688 687.4375 598.878906 680.621094 607.730469 677.355469 C 629.707031 675.226562 651.015625 695.945312 663.371094 712.3125 Z M 663.382812 712.300781 " fill-opacity="1" fill-rule="nonzero"/><path fill="#4c4c2c" d="M 522.351562 792.910156 C 517.617188 794.339844 512.851562 795.703125 508.046875 796.957031 C 504.082031 786.4375 498.78125 776.484375 491.539062 767.871094 C 487.761719 763.726562 483.421875 760.046875 478.402344 757.515625 C 471.113281 755.21875 460.617188 746.59375 472.535156 742.25 C 482.910156 739.847656 492.246094 748.535156 499.550781 754.851562 C 509.972656 765.632812 517.214844 778.839844 522.363281 792.898438 Z M 522.351562 792.910156 " fill-opacity="1" fill-rule="nonzero"/></svg>