<?xml version="1.0" encoding="UTF-8"?>
<svg xmlns="http://www.w3.org/2000/svg" xmlns:xlink="http://www.w3.org/1999/xlink" width="160px" height="160px" viewBox="0 0 160 160" version="1.1">
<g id="surface1">
<path style=" stroke:none;fill-rule:nonzero;fill:rgb(28.627452%,26.666668%,24.313726%);fill-opacity:1;" d="M 35.238281 90.910156 C 35.476562 91.238281 35.53125 91.523438 35.394531 91.761719 C 35.257812 92.003906 34.96875 92.121094 34.519531 92.121094 L 26.894531 92.121094 C 26.355469 92.121094 25.933594 91.898438 25.632812 91.449219 L 19.085938 82.742188 L 14.328125 82.742188 L 14.328125 91.089844 C 14.328125 91.777344 13.984375 92.121094 13.292969 92.121094 L 6.925781 92.121094 C 6.207031 92.121094 5.847656 91.777344 5.847656 91.089844 L 5.847656 61.742188 C 5.847656 61.054688 6.207031 60.710938 6.925781 60.710938 L 20.164062 60.710938 C 24.320312 60.710938 27.597656 61.667969 29.988281 63.585938 C 32.382812 65.496094 33.578125 68.203125 33.578125 71.703125 C 33.578125 76.3125 31.617188 79.496094 27.699219 81.261719 Z M 14.328125 67.574219 L 14.328125 75.832031 L 19.265625 75.832031 C 21.058594 75.832031 22.472656 75.480469 23.5 74.777344 C 24.535156 74.074219 25.050781 73.050781 25.050781 71.703125 C 25.050781 70.386719 24.550781 69.371094 23.546875 68.652344 C 22.546875 67.933594 21.191406 67.574219 19.488281 67.574219 Z M 14.328125 67.574219 "/>
<path style=" stroke:none;fill-rule:nonzero;fill:rgb(28.627452%,26.666668%,24.313726%);fill-opacity:1;" d="M 66.78125 91.222656 C 66.84375 91.882812 66.5625 92.269531 65.929688 92.390625 C 64.523438 92.75 63.269531 92.929688 62.164062 92.929688 C 59.140625 92.871094 57.09375 91.972656 56.015625 90.234375 C 53.890625 92.03125 51.347656 92.929688 48.386719 92.929688 C 44.914062 92.929688 42.089844 91.839844 39.902344 89.65625 C 37.71875 87.46875 36.628906 84.628906 36.628906 81.128906 C 36.628906 77.628906 37.71875 74.785156 39.902344 72.601562 C 42.089844 70.417969 44.914062 69.324219 48.386719 69.324219 C 50.929688 69.324219 53.050781 70.042969 54.757812 71.480469 L 54.757812 71.121094 C 54.757812 70.464844 55.117188 70.132812 55.835938 70.132812 L 61.621094 70.132812 C 62.3125 70.132812 62.65625 70.464844 62.65625 71.121094 L 62.65625 84.179688 C 62.65625 85.433594 63.121094 86.0625 64.046875 86.0625 C 64.496094 86.0625 64.871094 86.035156 65.167969 85.972656 C 65.886719 85.914062 66.261719 86.199219 66.292969 86.824219 Z M 45.871094 85.210938 C 46.800781 86.257812 48.011719 86.78125 49.507812 86.78125 C 51.003906 86.78125 52.214844 86.265625 53.140625 85.234375 C 54.070312 84.203125 54.53125 82.832031 54.53125 81.128906 C 54.53125 79.421875 54.070312 78.054688 53.140625 77.023438 C 52.214844 75.988281 51.003906 75.472656 49.507812 75.472656 C 48.011719 75.472656 46.800781 75.996094 45.871094 77.042969 C 44.945312 78.09375 44.484375 79.453125 44.484375 81.128906 C 44.484375 82.800781 44.945312 84.164062 45.871094 85.210938 Z M 45.871094 85.210938 "/>
<path style=" stroke:none;fill-rule:nonzero;fill:rgb(28.627452%,26.666668%,24.313726%);fill-opacity:1;" d="M 70.597656 66.765625 C 70.207031 66.765625 69.9375 66.648438 69.789062 66.410156 C 69.640625 66.167969 69.65625 65.886719 69.835938 65.554688 L 72.75 60.039062 C 73.019531 59.558594 73.425781 59.320312 73.964844 59.320312 L 79.976562 59.320312 C 80.394531 59.320312 80.671875 59.429688 80.808594 59.65625 C 80.941406 59.878906 80.886719 60.171875 80.648438 60.53125 L 76.882812 66.140625 C 76.550781 66.558594 76.132812 66.765625 75.625 66.765625 Z M 76.207031 70.132812 C 76.925781 70.132812 77.285156 70.464844 77.285156 71.121094 L 77.285156 91.089844 C 77.285156 91.777344 76.925781 92.121094 76.207031 92.121094 L 70.148438 92.121094 C 69.460938 92.121094 69.117188 91.777344 69.117188 91.089844 L 69.117188 71.121094 C 69.117188 70.464844 69.460938 70.132812 70.148438 70.132812 Z M 76.207031 70.132812 "/>
<path style=" stroke:none;fill-rule:nonzero;fill:rgb(28.627452%,26.666668%,24.313726%);fill-opacity:1;" d="M 92.902344 92.929688 C 89.070312 92.929688 85.980469 91.847656 83.632812 89.675781 C 81.285156 87.507812 80.109375 84.660156 80.109375 81.128906 C 80.109375 77.597656 81.285156 74.746094 83.632812 72.578125 C 85.980469 70.410156 89.070312 69.324219 92.902344 69.324219 C 96.039062 69.324219 98.679688 70.101562 100.820312 71.660156 C 102.960938 73.214844 104.253906 75.308594 104.703125 77.941406 C 104.851562 78.628906 104.523438 78.972656 103.714844 78.972656 L 98.375 78.972656 C 97.867188 78.972656 97.476562 78.6875 97.210938 78.121094 C 96.910156 77.34375 96.375 76.730469 95.613281 76.28125 C 94.851562 75.832031 93.960938 75.609375 92.945312 75.609375 C 91.359375 75.609375 90.085938 76.117188 89.128906 77.132812 C 88.171875 78.152344 87.695312 79.480469 87.695312 81.128906 C 87.695312 82.773438 88.171875 84.105469 89.128906 85.121094 C 90.085938 86.136719 91.359375 86.644531 92.945312 86.644531 C 93.960938 86.644531 94.851562 86.421875 95.613281 85.972656 C 96.375 85.523438 96.910156 84.910156 97.210938 84.132812 C 97.476562 83.535156 97.867188 83.234375 98.375 83.234375 L 103.714844 83.234375 C 104.523438 83.234375 104.851562 83.59375 104.703125 84.3125 C 104.253906 86.917969 102.960938 89.003906 100.820312 90.574219 C 98.679688 92.144531 96.039062 92.929688 92.902344 92.929688 Z M 92.902344 92.929688 "/>
<path style=" stroke:none;fill-rule:nonzero;fill:rgb(28.627452%,26.666668%,24.313726%);fill-opacity:1;" d="M 119.464844 92.929688 C 115.632812 92.929688 112.546875 91.847656 110.199219 89.675781 C 107.851562 87.507812 106.675781 84.660156 106.675781 81.128906 C 106.675781 77.597656 107.796875 74.746094 110.039062 72.578125 C 112.285156 70.410156 115.246094 69.324219 118.925781 69.324219 C 122.753906 69.324219 125.746094 70.394531 127.902344 72.535156 C 130.054688 74.671875 131.132812 77.492188 131.132812 80.992188 C 131.132812 81.109375 131.125 81.3125 131.109375 81.601562 C 131.09375 81.882812 131.085938 82.101562 131.085938 82.246094 C 131.058594 82.878906 130.667969 83.191406 129.921875 83.191406 L 114.347656 83.191406 C 114.648438 84.386719 115.261719 85.324219 116.1875 85.996094 C 117.117188 86.671875 118.238281 87.007812 119.554688 87.007812 C 120.871094 87.007812 121.886719 86.648438 122.605469 85.929688 C 123.085938 85.542969 123.535156 85.347656 123.953125 85.347656 L 129.605469 85.347656 C 129.996094 85.347656 130.269531 85.453125 130.4375 85.660156 C 130.601562 85.871094 130.621094 86.136719 130.503906 86.46875 C 129.757812 88.472656 128.402344 90.050781 126.441406 91.203125 C 124.484375 92.355469 122.15625 92.929688 119.464844 92.929688 Z M 114.347656 79.0625 L 123.773438 79.0625 C 123.652344 77.867188 123.179688 76.886719 122.359375 76.125 C 121.535156 75.359375 120.480469 74.980469 119.195312 74.980469 C 117.941406 74.980469 116.863281 75.359375 115.964844 76.125 C 115.066406 76.886719 114.527344 77.867188 114.347656 79.0625 Z M 114.347656 79.0625 "/>
<path style=" stroke:none;fill-rule:nonzero;fill:rgb(28.627452%,26.666668%,24.313726%);fill-opacity:1;" d="M 144.191406 92.929688 C 140.929688 92.929688 138.265625 92.308594 136.203125 91.070312 C 134.140625 89.828125 132.914062 88.113281 132.523438 85.929688 C 132.433594 85.210938 132.777344 84.851562 133.554688 84.851562 L 138.714844 84.894531 C 139.105469 84.894531 139.507812 85.136719 139.929688 85.613281 C 140.496094 86.78125 141.902344 87.363281 144.144531 87.363281 C 145.042969 87.363281 145.761719 87.230469 146.296875 86.960938 C 146.835938 86.691406 147.105469 86.316406 147.105469 85.839844 C 147.105469 85.269531 146.769531 84.835938 146.097656 84.539062 C 145.425781 84.238281 144.578125 84.054688 143.5625 83.980469 C 142.542969 83.902344 141.445312 83.738281 140.261719 83.484375 C 139.082031 83.230469 137.980469 82.902344 136.964844 82.496094 C 135.949219 82.09375 135.105469 81.398438 134.429688 80.410156 C 133.757812 79.421875 133.421875 78.167969 133.421875 76.640625 C 133.421875 74.457031 134.386719 72.691406 136.3125 71.347656 C 138.242188 70 140.78125 69.324219 143.921875 69.324219 C 146.914062 69.324219 149.402344 69.921875 151.390625 71.121094 C 153.378906 72.316406 154.554688 73.917969 154.914062 75.921875 C 154.976562 76.25 154.914062 76.503906 154.734375 76.6875 C 154.554688 76.863281 154.285156 76.953125 153.929688 76.953125 L 148.8125 76.953125 C 148.363281 76.953125 147.972656 76.746094 147.644531 76.324219 C 147.105469 75.1875 145.925781 74.621094 144.101562 74.621094 C 143.230469 74.621094 142.523438 74.757812 141.96875 75.027344 C 141.414062 75.292969 141.136719 75.652344 141.136719 76.101562 C 141.136719 76.671875 141.488281 77.125 142.195312 77.46875 C 142.898438 77.8125 143.773438 78.046875 144.816406 78.167969 C 145.863281 78.289062 147.007812 78.488281 148.25 78.773438 C 149.492188 79.054688 150.636719 79.410156 151.683594 79.828125 C 152.730469 80.246094 153.605469 80.949219 154.308594 81.9375 C 155.011719 82.921875 155.363281 84.148438 155.363281 85.613281 C 155.363281 87.917969 154.382812 89.714844 152.425781 91 C 150.464844 92.285156 147.722656 92.929688 144.191406 92.929688 Z M 144.191406 92.929688 "/>
<path style=" stroke:none;fill-rule:nonzero;fill:rgb(28.627452%,26.666668%,24.313726%);fill-opacity:1;" d="M 144.96875 96.238281 C 145.773438 96.238281 146.429688 96.496094 146.929688 97.011719 C 147.429688 97.527344 147.679688 98.207031 147.679688 99.046875 L 147.679688 102.175781 C 147.679688 102.300781 147.613281 102.363281 147.488281 102.363281 L 146.355469 102.363281 C 146.226562 102.363281 146.164062 102.300781 146.164062 102.175781 L 146.164062 99.132812 C 146.164062 98.652344 146.023438 98.269531 145.746094 97.976562 C 145.464844 97.683594 145.097656 97.535156 144.644531 97.535156 C 144.25 97.535156 143.929688 97.671875 143.683594 97.953125 C 143.441406 98.226562 143.320312 98.59375 143.320312 99.046875 L 143.320312 102.175781 C 143.320312 102.300781 143.257812 102.363281 143.132812 102.363281 L 141.996094 102.363281 C 141.871094 102.363281 141.808594 102.300781 141.808594 102.175781 L 141.808594 99.132812 C 141.808594 98.652344 141.683594 98.269531 141.433594 97.976562 C 141.183594 97.683594 140.847656 97.535156 140.425781 97.535156 C 139.988281 97.535156 139.632812 97.671875 139.359375 97.953125 C 139.089844 98.226562 138.953125 98.59375 138.953125 99.046875 L 138.953125 102.175781 C 138.953125 102.300781 138.890625 102.363281 138.765625 102.363281 L 137.628906 102.363281 C 137.503906 102.363281 137.441406 102.300781 137.441406 102.175781 L 137.441406 98.019531 C 137.441406 97.714844 137.269531 97.5625 136.925781 97.5625 C 136.867188 97.5625 136.75 97.574219 136.574219 97.597656 C 136.429688 97.617188 136.355469 97.566406 136.355469 97.449219 L 136.355469 96.585938 C 136.355469 96.46875 136.402344 96.394531 136.5 96.363281 C 136.726562 96.28125 136.976562 96.238281 137.257812 96.238281 C 137.941406 96.238281 138.410156 96.488281 138.65625 96.992188 C 139.175781 96.488281 139.871094 96.238281 140.746094 96.238281 C 141.578125 96.238281 142.238281 96.539062 142.726562 97.140625 C 143.261719 96.539062 144.007812 96.238281 144.96875 96.238281 Z M 144.96875 96.238281 "/>
<path style=" stroke:none;fill-rule:nonzero;fill:rgb(28.627452%,26.666668%,24.313726%);fill-opacity:1;" d="M 148.539062 102.363281 C 148.464844 102.363281 148.417969 102.339844 148.390625 102.300781 C 148.367188 102.257812 148.378906 102.207031 148.429688 102.140625 L 150.609375 99.355469 L 148.453125 96.644531 C 148.402344 96.582031 148.390625 96.527344 148.410156 96.484375 C 148.429688 96.445312 148.476562 96.421875 148.550781 96.421875 L 150 96.421875 C 150.097656 96.421875 150.171875 96.460938 150.226562 96.535156 L 151.621094 98.339844 L 153.046875 96.535156 C 153.09375 96.460938 153.167969 96.421875 153.269531 96.421875 L 154.703125 96.421875 C 154.777344 96.421875 154.824219 96.445312 154.84375 96.484375 C 154.863281 96.527344 154.851562 96.582031 154.800781 96.644531 L 152.636719 99.378906 L 154.8125 102.140625 C 154.863281 102.207031 154.875 102.257812 154.851562 102.300781 C 154.828125 102.339844 154.777344 102.363281 154.703125 102.363281 L 153.328125 102.363281 C 153.230469 102.363281 153.15625 102.324219 153.109375 102.25 L 151.648438 100.371094 L 150.148438 102.25 C 150.097656 102.324219 150.023438 102.363281 149.925781 102.363281 Z M 148.539062 102.363281 "/>
</g>
</svg>
