<svg xmlns="http://www.w3.org/2000/svg" xmlns:xlink="http://www.w3.org/1999/xlink" width="1080" zoomAndPan="magnify" viewBox="0 0 810 809.999993" height="1080" preserveAspectRatio="xMidYMid meet" version="1.0"><defs><g/></defs><g fill="#49443e" fill-opacity="1"><g transform="translate(16.648911, 466.363936)"><g><path d="M 161.75 -6.140625 C 162.957031 -4.472656 163.21875 -3.03125 162.53125 -1.8125 C 161.851562 -0.601562 160.378906 0 158.109375 0 L 119.5 0 C 116.769531 0 114.644531 -1.132812 113.125 -3.40625 L 79.96875 -47.484375 L 55.890625 -47.484375 L 55.890625 -5.21875 C 55.890625 -1.738281 54.144531 0 50.65625 0 L 18.40625 0 C 14.769531 0 12.953125 -1.738281 12.953125 -5.21875 L 12.953125 -153.796875 C 12.953125 -157.273438 14.769531 -159.015625 18.40625 -159.015625 L 85.421875 -159.015625 C 106.472656 -159.015625 123.054688 -154.164062 135.171875 -144.46875 C 147.285156 -134.78125 153.34375 -121.078125 153.34375 -103.359375 C 153.34375 -80.035156 143.421875 -63.90625 123.578125 -54.96875 Z M 55.890625 -124.265625 L 55.890625 -82.46875 L 80.875 -82.46875 C 89.957031 -82.46875 97.109375 -84.242188 102.328125 -87.796875 C 107.554688 -91.359375 110.171875 -96.546875 110.171875 -103.359375 C 110.171875 -110.023438 107.632812 -115.175781 102.5625 -118.8125 C 97.488281 -122.445312 90.640625 -124.265625 82.015625 -124.265625 Z M 55.890625 -124.265625 "/></g></g></g><g fill="#49443e" fill-opacity="1"><g transform="translate(178.166895, 466.363936)"><g><path d="M 159.921875 -4.546875 C 160.234375 -1.210938 158.796875 0.753906 155.609375 1.359375 C 148.492188 3.179688 142.132812 4.09375 136.53125 4.09375 C 121.238281 3.789062 110.863281 -0.753906 105.40625 -9.546875 C 94.65625 -0.453125 81.78125 4.09375 66.78125 4.09375 C 49.21875 4.09375 34.90625 -1.429688 23.84375 -12.484375 C 12.789062 -23.546875 7.265625 -37.9375 7.265625 -55.65625 C 7.265625 -73.375 12.789062 -87.757812 23.84375 -98.8125 C 34.90625 -109.875 49.21875 -115.40625 66.78125 -115.40625 C 79.65625 -115.40625 90.410156 -111.769531 99.046875 -104.5 L 99.046875 -106.3125 C 99.046875 -109.644531 100.863281 -111.3125 104.5 -111.3125 L 133.796875 -111.3125 C 137.285156 -111.3125 139.03125 -109.644531 139.03125 -106.3125 L 139.03125 -40.203125 C 139.03125 -33.847656 141.378906 -30.671875 146.078125 -30.671875 C 148.347656 -30.671875 150.238281 -30.820312 151.75 -31.125 C 155.382812 -31.425781 157.28125 -29.988281 157.4375 -26.8125 Z M 54.0625 -34.984375 C 58.757812 -29.679688 64.894531 -27.03125 72.46875 -27.03125 C 80.039062 -27.03125 86.171875 -29.640625 90.859375 -34.859375 C 95.554688 -40.085938 97.90625 -47.019531 97.90625 -55.65625 C 97.90625 -64.289062 95.554688 -71.21875 90.859375 -76.4375 C 86.171875 -81.664062 80.039062 -84.28125 72.46875 -84.28125 C 64.894531 -84.28125 58.757812 -81.628906 54.0625 -76.328125 C 49.375 -71.023438 47.03125 -64.132812 47.03125 -55.65625 C 47.03125 -47.175781 49.375 -40.285156 54.0625 -34.984375 Z M 54.0625 -34.984375 "/></g></g></g><g fill="#49443e" fill-opacity="1"><g transform="translate(337.413166, 466.363936)"><g><path d="M 19.984375 -128.359375 C 18.015625 -128.359375 16.648438 -128.960938 15.890625 -130.171875 C 15.140625 -131.378906 15.21875 -132.816406 16.125 -134.484375 L 30.890625 -162.421875 C 32.253906 -164.847656 34.300781 -166.0625 37.03125 -166.0625 L 67.46875 -166.0625 C 69.59375 -166.0625 70.992188 -165.492188 71.671875 -164.359375 C 72.347656 -163.222656 72.082031 -161.742188 70.875 -159.921875 L 51.796875 -131.53125 C 50.128906 -129.414062 48.007812 -128.359375 45.4375 -128.359375 Z M 48.390625 -111.3125 C 52.023438 -111.3125 53.84375 -109.644531 53.84375 -106.3125 L 53.84375 -5.21875 C 53.84375 -1.738281 52.023438 0 48.390625 0 L 17.71875 0 C 14.238281 0 12.5 -1.738281 12.5 -5.21875 L 12.5 -106.3125 C 12.5 -109.644531 14.238281 -111.3125 17.71875 -111.3125 Z M 48.390625 -111.3125 "/></g></g></g><g fill="#49443e" fill-opacity="1"><g transform="translate(398.294729, 466.363936)"><g><path d="M 72.015625 4.09375 C 52.628906 4.09375 36.988281 -1.394531 25.09375 -12.375 C 13.207031 -23.351562 7.265625 -37.78125 7.265625 -55.65625 C 7.265625 -73.53125 13.207031 -87.957031 25.09375 -98.9375 C 36.988281 -109.914062 52.628906 -115.40625 72.015625 -115.40625 C 87.910156 -115.40625 101.273438 -111.46875 112.109375 -103.59375 C 122.941406 -95.71875 129.492188 -85.113281 131.765625 -71.78125 C 132.515625 -68.300781 130.847656 -66.5625 126.765625 -66.5625 L 99.734375 -66.5625 C 97.148438 -66.5625 95.179688 -68 93.828125 -70.875 C 92.304688 -74.8125 89.613281 -77.914062 85.75 -80.1875 C 81.894531 -82.457031 77.390625 -83.59375 72.234375 -83.59375 C 64.210938 -83.59375 57.773438 -81.019531 52.921875 -75.875 C 48.078125 -70.726562 45.65625 -63.988281 45.65625 -55.65625 C 45.65625 -47.320312 48.078125 -40.582031 52.921875 -35.4375 C 57.773438 -30.289062 64.210938 -27.71875 72.234375 -27.71875 C 77.390625 -27.71875 81.894531 -28.851562 85.75 -31.125 C 89.613281 -33.394531 92.304688 -36.5 93.828125 -40.4375 C 95.179688 -43.46875 97.148438 -44.984375 99.734375 -44.984375 L 126.765625 -44.984375 C 130.847656 -44.984375 132.515625 -43.164062 131.765625 -39.53125 C 129.492188 -26.351562 122.941406 -15.785156 112.109375 -7.828125 C 101.273438 0.117188 87.910156 4.09375 72.015625 4.09375 Z M 72.015625 4.09375 "/></g></g></g><g fill="#49443e" fill-opacity="1"><g transform="translate(532.097931, 466.363936)"><g><path d="M 72.6875 4.09375 C 53.300781 4.09375 37.664062 -1.394531 25.78125 -12.375 C 13.894531 -23.351562 7.953125 -37.78125 7.953125 -55.65625 C 7.953125 -73.53125 13.628906 -87.957031 24.984375 -98.9375 C 36.347656 -109.914062 51.34375 -115.40625 69.96875 -115.40625 C 89.351562 -115.40625 104.5 -109.988281 115.40625 -99.15625 C 126.3125 -88.332031 131.765625 -74.0625 131.765625 -56.34375 C 131.765625 -55.738281 131.722656 -54.710938 131.640625 -53.265625 C 131.566406 -51.828125 131.53125 -50.734375 131.53125 -49.984375 C 131.382812 -46.796875 129.414062 -45.203125 125.625 -45.203125 L 46.796875 -45.203125 C 48.304688 -39.148438 51.410156 -34.414062 56.109375 -31 C 60.804688 -27.59375 66.484375 -25.890625 73.140625 -25.890625 C 79.804688 -25.890625 84.957031 -27.707031 88.59375 -31.34375 C 91.019531 -33.3125 93.289062 -34.296875 95.40625 -34.296875 L 124.03125 -34.296875 C 126 -34.296875 127.398438 -33.765625 128.234375 -32.703125 C 129.066406 -31.648438 129.179688 -30.289062 128.578125 -28.625 C 124.796875 -18.476562 117.941406 -10.488281 108.015625 -4.65625 C 98.097656 1.175781 86.320312 4.09375 72.6875 4.09375 Z M 46.796875 -66.109375 L 94.5 -66.109375 C 93.894531 -72.160156 91.507812 -77.117188 87.34375 -80.984375 C 83.175781 -84.847656 77.835938 -86.78125 71.328125 -86.78125 C 64.972656 -86.78125 59.519531 -84.847656 54.96875 -80.984375 C 50.425781 -77.117188 47.703125 -72.160156 46.796875 -66.109375 Z M 46.796875 -66.109375 "/></g></g></g><g fill="#49443e" fill-opacity="1"><g transform="translate(666.355479, 466.363936)"><g><path d="M 63.609375 4.09375 C 47.097656 4.09375 33.617188 0.953125 23.171875 -5.328125 C 12.722656 -11.617188 6.515625 -20.289062 4.546875 -31.34375 C 4.085938 -34.976562 5.828125 -36.796875 9.765625 -36.796875 L 35.890625 -36.578125 C 37.859375 -36.578125 39.90625 -35.363281 42.03125 -32.9375 C 44.90625 -27.03125 52.019531 -24.078125 63.375 -24.078125 C 67.925781 -24.078125 71.5625 -24.757812 74.28125 -26.125 C 77.007812 -27.488281 78.375 -29.378906 78.375 -31.796875 C 78.375 -34.679688 76.671875 -36.878906 73.265625 -38.390625 C 69.859375 -39.898438 65.578125 -40.84375 60.421875 -41.21875 C 55.273438 -41.601562 49.707031 -42.4375 43.71875 -43.71875 C 37.738281 -45.007812 32.175781 -46.675781 27.03125 -48.71875 C 21.882812 -50.769531 17.609375 -54.289062 14.203125 -59.28125 C 10.796875 -64.28125 9.09375 -70.644531 9.09375 -78.375 C 9.09375 -89.425781 13.972656 -98.359375 23.734375 -105.171875 C 33.503906 -111.992188 46.34375 -115.40625 62.25 -115.40625 C 77.394531 -115.40625 90 -112.375 100.0625 -106.3125 C 110.132812 -100.257812 116.082031 -92.160156 117.90625 -82.015625 C 118.207031 -80.347656 117.898438 -79.054688 116.984375 -78.140625 C 116.078125 -77.234375 114.71875 -76.78125 112.90625 -76.78125 L 87 -76.78125 C 84.726562 -76.78125 82.757812 -77.84375 81.09375 -79.96875 C 78.375 -85.71875 72.394531 -88.59375 63.15625 -88.59375 C 58.757812 -88.59375 55.160156 -87.910156 52.359375 -86.546875 C 49.554688 -85.191406 48.15625 -83.375 48.15625 -81.09375 C 48.15625 -78.21875 49.9375 -75.910156 53.5 -74.171875 C 57.0625 -72.429688 61.488281 -71.253906 66.78125 -70.640625 C 72.082031 -70.035156 77.875 -69.015625 84.15625 -67.578125 C 90.445312 -66.140625 96.242188 -64.359375 101.546875 -62.234375 C 106.847656 -60.117188 111.273438 -56.5625 114.828125 -51.5625 C 118.390625 -46.570312 120.171875 -40.363281 120.171875 -32.9375 C 120.171875 -21.28125 115.210938 -12.191406 105.296875 -5.671875 C 95.378906 0.835938 81.484375 4.09375 63.609375 4.09375 Z M 63.609375 4.09375 "/></g></g></g><g fill="#49443e" fill-opacity="1"><g transform="translate(688.415705, 518.20683)"><g><path d="M 45.484375 -31 C 49.566406 -31 52.875 -29.691406 55.40625 -27.078125 C 57.9375 -24.472656 59.203125 -21.039062 59.203125 -16.78125 L 59.203125 -0.9375 C 59.203125 -0.3125 58.882812 0 58.25 0 L 52.5 0 C 51.863281 0 51.546875 -0.3125 51.546875 -0.9375 L 51.546875 -16.34375 C 51.546875 -18.769531 50.835938 -20.722656 49.421875 -22.203125 C 48.003906 -23.691406 46.144531 -24.4375 43.84375 -24.4375 C 41.84375 -24.4375 40.222656 -23.734375 38.984375 -22.328125 C 37.753906 -20.929688 37.140625 -19.082031 37.140625 -16.78125 L 37.140625 -0.9375 C 37.140625 -0.3125 36.828125 0 36.203125 0 L 30.4375 0 C 29.8125 0 29.5 -0.3125 29.5 -0.9375 L 29.5 -16.34375 C 29.5 -18.769531 28.863281 -20.722656 27.59375 -22.203125 C 26.320312 -23.691406 24.617188 -24.4375 22.484375 -24.4375 C 20.273438 -24.4375 18.476562 -23.734375 17.09375 -22.328125 C 15.71875 -20.929688 15.03125 -19.082031 15.03125 -16.78125 L 15.03125 -0.9375 C 15.03125 -0.3125 14.71875 0 14.09375 0 L 8.328125 0 C 7.703125 0 7.390625 -0.3125 7.390625 -0.9375 L 7.390625 -21.984375 C 7.390625 -23.523438 6.515625 -24.296875 4.765625 -24.296875 C 4.472656 -24.296875 3.882812 -24.234375 3 -24.109375 C 2.25 -24.023438 1.875 -24.28125 1.875 -24.875 L 1.875 -29.25 C 1.875 -29.832031 2.125 -30.207031 2.625 -30.375 C 3.757812 -30.789062 5.035156 -31 6.453125 -31 C 9.921875 -31 12.28125 -29.726562 13.53125 -27.1875 C 16.164062 -29.726562 19.691406 -31 24.109375 -31 C 28.328125 -31 31.671875 -29.476562 34.140625 -26.4375 C 36.847656 -29.476562 40.628906 -31 45.484375 -31 Z M 45.484375 -31 "/></g></g></g><g fill="#49443e" fill-opacity="1"><g transform="translate(749.91918, 518.20683)"><g><path d="M 2.0625 0 C 1.6875 0 1.4375 -0.101562 1.3125 -0.3125 C 1.1875 -0.519531 1.25 -0.789062 1.5 -1.125 L 12.53125 -15.21875 L 1.625 -28.9375 C 1.375 -29.269531 1.300781 -29.539062 1.40625 -29.75 C 1.507812 -29.957031 1.75 -30.0625 2.125 -30.0625 L 9.453125 -30.0625 C 9.953125 -30.0625 10.332031 -29.875 10.59375 -29.5 L 17.671875 -20.359375 L 24.875 -29.5 C 25.125 -29.875 25.5 -30.0625 26 -30.0625 L 33.265625 -30.0625 C 33.640625 -30.0625 33.878906 -29.957031 33.984375 -29.75 C 34.085938 -29.539062 34.015625 -29.269531 33.765625 -28.9375 L 22.796875 -15.09375 L 33.828125 -1.125 C 34.078125 -0.789062 34.140625 -0.519531 34.015625 -0.3125 C 33.890625 -0.101562 33.640625 0 33.265625 0 L 26.3125 0 C 25.8125 0 25.4375 -0.1875 25.1875 -0.5625 L 17.796875 -10.078125 L 10.203125 -0.5625 C 9.953125 -0.1875 9.578125 0 9.078125 0 Z M 2.0625 0 "/></g></g></g></svg>